<?xml version="1.0" standalone="no"?>
<!DOCTYPE svg PUBLIC "-//W3C//DTD SVG 20010904//EN"
 "http://www.w3.org/TR/2001/REC-SVG-20010904/DTD/svg10.dtd">
<svg version="1.0" xmlns="http://www.w3.org/2000/svg"
 width="300.000000pt" height="300.000000pt" viewBox="0 0 300.000000 300.000000"
 preserveAspectRatio="xMidYMid meet">
<metadata>
Created by potrace 1.10, written by Peter Selinger 2001-2011
</metadata>
<g transform="translate(0.000000,300.000000) scale(0.100000,-0.100000)"
fill="#000000" stroke="none">
<path d="M1465 2803 c-11 -3 -30 -14 -42 -26 l-23 -20 0 21 c0 16 -6 22 -21
22 -20 0 -20 -4 -14 -92 9 -139 13 -158 34 -158 16 0 17 8 13 78 -5 90 5 119
49 134 18 6 29 17 29 29 0 10 -1 18 -2 18 -2 -1 -12 -3 -23 -6z"/>
<path d="M1939 2685 c-27 -58 -58 -122 -68 -143 -19 -37 -19 -38 -1 -50 17
-10 21 -7 39 33 11 25 22 45 24 45 3 0 29 -11 59 -25 77 -36 122 -33 164 9 27
27 34 42 34 74 0 24 -8 49 -20 64 -19 25 -146 98 -170 98 -6 0 -33 -47 -61
-105z m132 35 c55 -28 79 -55 79 -87 0 -35 -36 -73 -70 -73 -22 0 -113 32
-128 45 -6 5 62 135 71 135 4 0 26 -9 48 -20z"/>
<path d="M1123 2740 c-40 -24 -53 -48 -53 -100 0 -52 25 -95 66 -115 43 -20
77 -19 125 5 44 23 58 45 39 63 -10 9 -14 9 -17 -1 -7 -18 -58 -42 -91 -42
-32 0 -89 38 -75 50 4 4 49 18 98 30 50 13 92 25 93 26 2 1 -4 19 -13 39 -31
63 -109 84 -172 45z m100 -21 c12 -6 28 -18 34 -28 10 -17 4 -20 -66 -40 -43
-11 -82 -21 -86 -21 -10 0 4 51 18 69 24 28 64 37 100 20z"/>
<path d="M896 2649 c-35 -10 -65 -37 -77 -68 -9 -21 -11 -22 -22 -8 -8 12 -16
14 -27 7 -13 -8 -13 -14 4 -42 122 -214 149 -258 155 -258 4 0 12 5 18 11 8 8
4 24 -18 59 -16 26 -29 50 -29 53 0 3 16 5 35 4 44 -1 84 27 109 77 18 38 18
39 0 84 -29 68 -85 100 -148 81z m85 -58 c40 -40 41 -100 3 -130 -60 -48 -144
-7 -144 69 0 30 6 44 31 64 40 34 74 33 110 -3z"/>
<path d="M1651 2587 c-17 -21 -3 -49 23 -45 15 2 21 10 21 28 0 28 -26 38 -44
17z"/>
<path d="M2197 2465 c-77 -98 -83 -108 -65 -123 10 -8 24 3 58 46 25 31 57 63
73 72 25 14 30 13 56 -1 28 -16 51 -10 51 12 0 13 -66 30 -86 23 -18 -7 -18
-7 -2 12 14 16 15 23 6 32 -7 7 -14 12 -17 12 -4 0 -37 -39 -74 -85z"/>
<path d="M635 2456 c-100 -45 -112 -171 -22 -226 64 -39 144 -12 180 63 31 62
0 134 -69 163 -40 17 -51 17 -89 0z m101 -60 c43 -43 44 -77 5 -117 -20 -20
-39 -29 -61 -29 -43 0 -90 47 -90 90 0 22 9 41 29 61 40 39 74 38 117 -5z"/>
<path d="M2323 2355 c-96 -76 -42 -225 82 -225 43 0 89 29 110 70 19 37 19 64
-2 107 -34 72 -129 96 -190 48z m117 -20 c57 -30 68 -95 23 -137 -37 -33 -57
-39 -92 -27 -34 12 -61 48 -61 82 0 40 52 93 93 96 4 1 21 -6 37 -14z"/>
<path d="M356 2304 c-4 -9 -5 -18 -4 -19 2 -1 48 -33 103 -70 55 -38 117 -82
138 -98 32 -25 41 -28 48 -16 5 8 9 17 9 20 0 8 -268 199 -280 199 -4 0 -11
-7 -14 -16z"/>
<path d="M2498 2124 c-32 -17 -58 -62 -58 -99 0 -36 36 -102 60 -110 43 -14 2
-41 -51 -33 -34 5 -69 62 -69 114 0 37 -3 44 -20 44 -16 0 -20 -7 -20 -37 1
-81 62 -163 123 -163 46 0 259 100 255 119 -2 10 -12 15 -24 13 -18 -2 -20 2
-16 28 10 67 -51 140 -116 140 -20 -1 -49 -7 -64 -16z m117 -46 c62 -55 30
-152 -50 -152 -29 0 -43 7 -61 28 -71 82 30 194 111 124z"/>
<path d="M394 2121 c-11 -5 -33 -23 -47 -41 -37 -43 -38 -115 -2 -154 85 -92
225 -35 225 92 0 36 -3 43 -17 40 -13 -2 -17 -11 -15 -30 4 -32 -21 -84 -47
-98 -18 -9 -71 -14 -71 -6 0 2 18 43 41 91 25 54 37 91 32 96 -14 14 -75 20
-99 10z m64 -39 c-35 -86 -63 -142 -69 -142 -12 0 -39 42 -39 62 0 29 21 65
44 76 25 13 69 15 64 4z"/>
<path d="M257 1881 c-4 -15 14 -32 85 -81 49 -34 86 -66 81 -70 -4 -4 -42 -13
-83 -19 -109 -18 -118 -21 -125 -38 -3 -9 -3 -18 -1 -20 3 -3 63 7 135 23 119
25 131 29 131 49 0 14 -16 32 -47 54 -27 19 -76 53 -109 77 -55 40 -62 42 -67
25z"/>
<path d="M2625 1812 c-60 -14 -112 -27 -113 -28 -2 -1 -1 -11 2 -22 6 -19 9
-19 62 -5 31 8 74 13 97 11 36 -3 44 -7 57 -35 16 -35 19 -37 38 -24 18 11 -2
55 -32 69 l-21 11 23 7 c22 6 28 35 7 39 -5 2 -59 -9 -120 -23z"/>
<path d="M2573 1626 c-23 -20 -28 -32 -28 -69 0 -30 6 -52 19 -66 17 -19 17
-21 3 -21 -10 0 -17 -8 -17 -21 0 -19 4 -20 98 -14 86 6 100 10 120 31 31 35
30 131 -3 172 -1 1 -9 0 -18 -4 -15 -5 -15 -9 -2 -34 16 -31 19 -78 7 -97 -4
-6 -19 -16 -33 -22 l-26 -10 -6 67 c-4 56 -9 70 -32 89 -33 29 -47 29 -82 -1z
m71 -38 c22 -31 22 -118 0 -118 -58 0 -89 78 -51 128 14 18 34 15 51 -10z"/>
<path d="M249 1572 c-59 -53 -48 -161 21 -197 61 -32 128 -14 167 44 29 42 30
95 3 139 -17 28 -23 32 -35 22 -13 -11 -13 -15 0 -33 24 -34 19 -94 -10 -122
-13 -14 -29 -25 -35 -25 -9 0 -13 48 -15 168 0 29 -3 32 -32 32 -22 0 -43 -10
-64 -28z m71 -93 c0 -89 -11 -99 -55 -54 -35 34 -33 78 5 116 16 17 34 28 40
24 5 -3 10 -42 10 -86z"/>
<path d="M2557 1384 c-19 -19 0 -35 73 -59 48 -16 84 -34 90 -45 25 -47 -2
-110 -47 -110 -15 0 -58 10 -95 22 -60 19 -70 20 -78 8 -16 -24 -13 -26 55
-45 88 -23 115 -46 115 -94 0 -42 -23 -71 -57 -71 -11 0 -52 11 -92 25 -62 21
-73 22 -78 9 -3 -8 -2 -19 3 -24 12 -11 146 -50 173 -50 70 0 110 85 77 162
-5 11 -1 18 13 23 32 10 54 61 48 112 -4 36 -2 43 11 41 9 -2 18 4 20 14 2 13
-18 23 -97 47 -55 17 -106 34 -114 37 -7 2 -16 1 -20 -2z"/>
<path d="M313 1310 c-75 -17 -123 -76 -123 -149 0 -66 41 -203 59 -196 7 3 75
24 150 46 75 23 139 43 143 45 15 9 -53 179 -84 211 -26 27 -86 56 -108 52 -3
-1 -20 -4 -37 -9z m105 -57 c25 -15 69 -101 74 -142 3 -22 -6 -27 -115 -61
-64 -21 -119 -35 -121 -31 -2 3 -11 33 -21 65 -20 73 -14 114 24 150 48 46
106 53 159 19z"/>
<path d="M2404 956 c-3 -9 11 -30 37 -53 70 -62 79 -75 79 -108 0 -37 -35 -75
-68 -75 -13 0 -41 17 -65 38 -87 77 -85 76 -103 61 -14 -12 -14 -14 3 -26 10
-8 39 -34 65 -59 36 -35 48 -53 48 -75 0 -35 -39 -79 -69 -79 -11 0 -49 25
-85 56 -56 48 -68 54 -82 44 -13 -12 -8 -19 37 -59 107 -95 140 -102 195 -47
32 32 39 48 35 89 -2 11 5 17 19 17 49 0 99 47 100 93 0 28 13 36 26 16 6 -11
23 5 24 23 0 8 -173 158 -183 158 -4 0 -10 -6 -13 -14z"/>
<path d="M543 870 c-88 -53 -83 -180 9 -219 l41 -17 -52 -44 c-45 -38 -50 -45
-37 -58 13 -13 27 -4 118 74 57 49 116 99 132 111 24 19 27 25 16 38 -9 11
-16 13 -24 5 -14 -14 -26 -12 -20 4 9 24 -24 85 -58 106 -42 25 -84 25 -125 0z
m113 -38 c25 -19 44 -53 44 -76 0 -8 -14 -31 -31 -51 -49 -55 -117 -46 -145
20 -17 41 -7 73 32 104 32 25 71 27 100 3z"/>
<path d="M800 670 c0 -15 7 -20 26 -20 53 0 121 -102 84 -125 -6 -4 -42 17
-81 45 -38 28 -76 53 -83 56 -17 6 -36 -38 -36 -84 0 -67 52 -112 131 -112 34
0 47 6 74 34 67 72 50 162 -39 206 -54 26 -76 26 -76 0z m27 -132 l64 -43 -22
-18 c-39 -31 -101 -10 -120 41 -9 24 -4 62 8 62 4 0 35 -19 70 -42z"/>
<path d="M2013 600 c-18 -10 -40 -31 -49 -45 -15 -23 -15 -28 -3 -36 20 -12
29 -11 29 4 0 19 32 46 67 56 30 9 93 -9 93 -26 0 -4 -41 -30 -90 -56 -90 -47
-90 -48 -74 -71 39 -61 132 -69 185 -17 36 36 45 73 30 121 -24 81 -115 115
-188 70z m157 -114 c0 -42 -38 -76 -84 -76 -31 1 -80 29 -61 36 6 2 35 19 65
38 71 44 80 44 80 2z"/>
<path d="M995 398 c-70 -103 -92 -144 -83 -150 7 -4 16 -8 19 -8 4 0 39 51 80
113 40 61 75 114 76 116 9 13 14 -19 22 -139 8 -124 15 -150 41 -150 3 0 39
52 80 115 41 62 78 114 81 114 4 1 10 -62 14 -138 7 -130 9 -140 28 -145 12
-3 22 -4 22 -3 2 3 -17 342 -19 343 0 1 -10 4 -22 8 -17 5 -32 -11 -100 -110
l-79 -116 -7 48 c-3 27 -7 85 -7 129 -1 84 -5 98 -33 108 -14 5 -37 -23 -113
-135z"/>
<path d="M1850 517 c0 -8 9 -40 20 -72 27 -78 25 -99 -10 -128 -31 -27 -40
-57 -16 -57 8 0 26 13 39 30 29 34 37 37 37 15 0 -17 9 -19 28 -7 19 13 -57
231 -80 232 -10 0 -18 -6 -18 -13z"/>
<path d="M1575 460 c-12 -20 6 -51 28 -48 31 4 31 52 0 56 -11 2 -24 -2 -28
-8z"/>
</g>
</svg>
