<svg version="1.1" id="Layer_1" xmlns="http://www.w3.org/2000/svg" xmlns:xlink="http://www.w3.org/1999/xlink" x="0px" y="0px"
	 width="100%" viewBox="0 0 1024 1024" enable-background="new 0 0 1024 1024" xml:space="preserve">
<path fill="#000000" opacity="1.000000" stroke="none" 
	d="
M196.990372,437.981598 
	C186.434891,438.295135 176.492691,442.091064 166.115570,443.436066 
	C164.226944,443.680847 161.802444,445.116638 161.253967,442.198853 
	C160.757996,439.560364 163.252396,439.209167 165.293732,438.932983 
	C167.995300,438.567413 170.585327,437.416992 170.265656,434.438171 
	C169.889053,430.929108 171.425873,430.206665 174.303040,429.685974 
	C181.983444,428.295959 189.298065,425.268921 197.132584,424.491577 
	C198.462112,424.359650 199.680588,423.762177 200.482712,422.580017 
	C200.212112,421.486603 199.288010,421.302277 198.540237,421.523926 
	C191.732071,423.541687 183.960602,422.892426 177.931961,425.801971 
	C171.616165,428.850098 165.638031,426.953033 158.651505,428.731110 
	C160.779099,426.635284 162.681396,426.975006 164.213348,426.447021 
	C167.992798,425.144409 170.998154,423.006714 172.795547,419.330170 
	C173.377441,418.139923 173.987167,416.917847 174.819992,415.904083 
	C177.476578,412.670532 181.820953,410.133240 179.316650,404.862213 
	C177.468994,400.973328 175.887299,396.869049 172.003891,394.377655 
	C171.459885,394.028625 170.864471,393.622009 171.206146,392.440002 
	C173.471329,391.378754 175.825012,393.056122 178.532333,393.243408 
	C178.284424,395.173004 179.145050,395.870911 180.284027,396.839508 
	C183.364029,399.458649 187.456467,399.801910 190.721878,401.979797 
	C187.372604,398.203156 183.203674,395.584839 179.018921,392.987396 
	C177.369995,391.606018 175.661133,390.289368 174.084747,388.829651 
	C170.891541,385.872681 170.123230,380.010315 172.357086,376.503601 
	C173.779068,374.271393 175.333755,375.106720 177.005066,376.178619 
	C180.256531,378.264038 183.227295,380.858521 188.277786,382.720520 
	C183.735580,377.227112 178.994751,374.338165 174.070618,371.766052 
	C171.212540,370.273132 170.094879,373.236176 168.246063,374.638214 
	C165.520737,373.030731 165.964767,370.928833 167.941269,369.480011 
	C176.982773,362.852203 177.885666,352.820435 179.242416,343.019196 
	C180.944397,330.723877 185.219437,319.868744 195.454422,312.085510 
	C196.247162,311.482697 196.919724,310.360565 197.759186,310.237518 
	C204.691101,309.221588 207.568893,302.725525 212.704605,299.282715 
	C216.856430,296.499481 216.710464,292.501709 213.060745,288.804626 
	C209.055862,284.747772 209.055878,284.747772 207.665939,280.131470 
	C216.888947,286.147583 225.093979,291.499664 233.298996,296.851715 
	C229.418594,291.368011 224.150635,287.687134 218.769119,284.351105 
	C212.231522,280.298401 206.654221,275.062042 200.433807,270.638947 
	C197.033752,268.221283 197.394165,266.592560 201.714676,264.419464 
	C202.232574,266.234833 202.689056,267.647339 203.662567,268.825439 
	C204.887299,270.307556 206.602051,271.715759 208.304062,270.333099 
	C210.381165,268.645721 208.296616,267.098297 207.217560,265.795319 
	C205.882095,264.182770 204.191788,263.215790 201.973801,264.037140 
	C203.189957,258.600952 203.848175,258.223877 208.337875,261.104431 
	C215.168732,265.487091 221.897812,270.028442 228.927765,274.672577 
	C228.840973,272.754456 228.812927,272.796600 221.253815,267.767944 
	C218.102524,265.671509 216.513962,261.627258 212.457138,260.608734 
	C208.618011,259.644867 207.848526,253.766113 202.448212,254.517548 
	C212.216736,249.890564 215.605240,239.743622 222.606567,232.984406 
	C229.532928,226.297562 237.484131,220.721573 247.412643,218.988922 
	C248.352020,218.824997 249.518097,218.481918 250.070358,217.806320 
	C255.673813,210.951355 262.946045,205.786926 268.797058,199.192780 
	C269.747986,198.121063 269.955078,196.837509 270.038696,195.487015 
	C270.401581,189.627838 273.547241,186.022690 279.030823,184.191269 
	C284.820038,182.257751 290.498596,181.080475 296.574402,183.437225 
	C301.436188,185.323090 305.561646,182.632477 308.734344,179.448593 
	C315.311066,172.848663 323.878540,169.236618 331.100464,163.672913 
	C335.269958,160.460770 339.308746,157.007050 342.996979,153.259186 
	C348.416443,147.752090 354.875641,144.344574 362.108337,141.914856 
	C369.771973,139.340363 376.880859,134.980209 385.328217,135.028183 
	C386.142853,135.032822 387.020325,134.446289 387.765594,134.608215 
	C397.142822,136.645416 403.618988,130.635864 410.133850,125.886375 
	C415.593323,121.906303 421.256805,119.459503 427.700806,120.163307 
	C440.769775,121.590691 452.431732,115.962471 464.720642,113.558693 
	C470.462952,112.435471 474.764465,108.481285 478.865662,104.531670 
	C481.763428,101.740967 482.965027,98.240746 483.085754,94.186607 
	C483.384308,84.163460 486.993256,79.702141 496.611267,77.054970 
	C499.342010,76.303383 502.047302,75.318062 504.832458,74.931572 
	C513.250122,73.763458 519.999146,70.082336 525.981018,63.856148 
	C530.590393,59.058521 537.461121,57.277622 543.584229,54.673649 
	C560.318604,47.556934 577.332764,41.289768 595.429688,38.607136 
	C610.325256,36.399063 625.338501,36.547810 640.320496,37.160095 
	C645.817871,37.384766 651.192749,39.103840 655.712952,42.515556 
	C665.543213,49.935108 676.862427,54.385078 688.119263,58.958347 
	C689.626343,59.570633 691.341614,59.776367 692.983093,59.933071 
	C699.076477,60.514790 704.725952,62.313499 709.764954,65.837456 
	C714.614807,69.229126 719.957336,71.383041 725.710571,72.743874 
	C738.678833,75.811287 751.596985,79.090324 764.559265,82.183662 
	C775.100708,84.699280 781.453186,92.590660 787.460144,100.521400 
	C794.695862,110.074539 801.320618,120.118881 809.201172,129.156052 
	C816.023132,136.979309 818.843567,146.997070 824.561768,155.380478 
	C826.718018,158.541702 828.501709,162.020706 831.007812,164.868484 
	C841.315613,176.581299 847.280884,190.537537 850.581360,205.386673 
	C853.385254,218.001511 859.756775,228.501572 866.528564,238.982956 
	C876.814331,254.903152 888.291565,270.024994 898.202515,286.203003 
	C902.127319,292.609558 903.905701,299.673767 905.032104,306.941650 
	C907.300354,321.576904 911.048706,335.972931 912.096008,350.808105 
	C912.211731,352.447235 912.673279,354.105713 913.231201,355.663269 
	C923.689026,384.855194 918.422607,412.942505 907.131897,440.535309 
	C905.634705,444.194275 904.340942,447.780060 905.018127,451.629639 
	C907.257019,464.356781 903.765991,477.171967 905.975098,489.952393 
	C907.145264,496.722382 904.432129,502.275574 898.496033,506.760864 
	C893.777832,510.325836 890.546570,515.723389 889.076721,521.730042 
	C888.282166,524.977112 887.401306,527.813843 883.377869,528.246887 
	C881.811829,528.415466 880.437805,529.669678 880.352722,531.220459 
	C879.938416,538.773193 874.843140,543.740479 870.653503,549.185486 
	C867.856689,552.820374 868.029541,557.677063 865.316467,562.056763 
	C863.047363,556.851135 863.917358,552.068359 863.528198,547.055054 
	C868.228943,547.264160 870.471252,545.403931 869.803589,540.832336 
	C869.604004,539.465759 870.890381,539.083496 871.727844,538.298279 
	C873.478088,536.657288 873.030579,535.745178 870.143311,534.550293 
	C866.509338,530.245422 861.646790,528.010193 856.985535,527.665222 
	C851.661133,527.271301 847.551514,522.871033 842.044922,524.059631 
	C841.737854,524.125977 841.153931,523.601685 840.922791,523.217590 
	C839.199158,520.354248 836.735718,521.599121 834.218445,522.545776 
	C846.152283,526.693115 858.086060,530.840515 870.019897,534.987854 
	C869.740845,535.772644 869.461121,536.557251 869.182800,537.342285 
	C866.281006,545.526123 866.281128,545.526184 858.395264,544.858582 
	C863.876587,568.039978 860.779419,576.359375 841.691040,588.769714 
	C849.327637,602.566589 847.389282,616.015991 839.148499,629.033569 
	C851.320740,617.093567 847.786011,602.693237 846.309998,588.313721 
	C856.994751,584.901978 860.612366,574.927795 864.196167,565.343140 
	C866.909241,565.398071 866.798218,567.167053 867.188110,568.536194 
	C868.556458,573.341675 871.137268,577.874817 872.284363,582.530518 
	C875.187866,594.315002 879.207520,605.983398 876.975525,618.687073 
	C874.529053,632.612000 872.576111,646.771912 868.367737,660.135498 
	C864.433044,672.629822 861.114441,685.342712 852.043030,696.462158 
	C843.571533,706.846313 834.811646,717.736450 828.908752,730.224121 
	C825.825378,736.747192 824.998474,743.831909 825.304321,750.705322 
	C825.639954,758.247192 831.245178,763.842407 835.403870,769.814636 
	C836.249084,771.028442 837.473267,771.978333 838.522278,773.050354 
	C844.909241,779.577393 845.038147,783.493774 841.128906,791.864014 
	C834.605347,805.832031 822.269104,814.471802 811.994507,825.016663 
	C804.464783,832.744385 796.175720,839.875244 791.560913,849.954041 
	C789.423645,854.621521 786.307434,858.217896 782.296204,861.455627 
	C772.979187,868.975952 764.149597,877.027100 753.247559,882.445618 
	C743.324646,887.377502 732.691406,889.198303 721.980835,890.640869 
	C716.502808,891.378723 711.865479,889.015198 709.353699,883.605530 
	C707.151367,878.862244 703.678040,875.584717 698.742188,873.598022 
	C693.417053,871.454712 689.928406,867.628845 689.933533,861.484985 
	C689.940002,853.755737 685.767761,849.204407 678.893188,846.552917 
	C675.132080,845.102234 671.230774,843.808105 667.287292,843.687622 
	C658.982544,843.433655 653.340149,838.695190 647.274109,833.863525 
	C639.943604,828.024719 632.595642,821.542969 621.814575,822.175598 
	C622.350586,820.168823 622.785767,818.539673 623.341675,816.458435 
	C626.780090,819.469299 630.678162,819.016541 634.452820,818.957031 
	C641.599426,818.844421 644.580200,813.902283 641.647217,807.492188 
	C639.428833,802.643860 638.230225,797.406799 636.426331,792.422058 
	C634.708679,787.675659 633.537415,782.579712 630.372375,778.411926 
	C630.085266,778.033875 629.721191,777.432739 629.834351,777.074646 
	C631.556152,771.625854 626.708435,767.837891 626.191040,762.714783 
	C625.759094,758.437744 622.014587,754.494202 621.997803,749.545105 
	C621.994812,748.663147 620.644836,748.200806 619.229187,748.811890 
	C620.950134,757.045898 624.259399,764.831543 626.853577,772.829346 
	C630.806519,785.016541 634.548218,797.289612 639.046997,809.275696 
	C641.616638,816.121887 636.068848,815.205139 633.070007,816.773193 
	C629.439819,818.671326 627.925415,816.492065 627.080383,813.297974 
	C626.748779,812.044556 626.276184,810.828430 625.614258,808.829773 
	C622.735901,815.785217 618.397095,820.509155 612.504150,823.638794 
	C609.540100,825.212891 606.252075,826.694336 604.027222,822.315125 
	C601.750610,817.833984 602.575989,815.641724 607.134705,813.250366 
	C611.300171,811.065308 615.195557,808.489807 617.191528,803.093994 
	C619.868042,797.350037 619.348938,792.066895 617.732178,786.949158 
	C614.878601,777.916504 611.684937,768.991394 608.645813,760.017151 
	C606.339844,753.208130 606.359680,753.232666 613.042358,750.421387 
	C613.831848,750.089233 615.081360,750.213440 615.408569,748.328064 
	C613.515747,748.328064 611.733093,748.233521 609.963745,748.346741 
	C605.589233,748.626770 602.482971,752.578613 604.569641,756.305908 
	C608.448608,763.234680 609.586243,771.068909 612.619751,778.293396 
	C615.785095,785.831665 619.552979,794.111145 617.033813,803.035583 
	C616.550598,802.390259 616.067322,801.744873 615.242554,800.643372 
	C613.515686,805.598694 610.072205,808.594788 605.825134,810.361572 
	C599.957336,812.802490 601.311218,817.655334 601.293518,822.115173 
	C601.282410,824.917053 600.635437,828.195740 605.813599,828.523376 
	C596.128845,832.278748 600.038147,840.765198 598.322632,847.188110 
	C597.661194,849.664734 599.542480,851.269714 601.571289,852.246826 
	C605.613281,854.193542 609.377319,856.658264 613.695618,858.110168 
	C620.312927,860.335205 621.994202,863.773621 621.449036,870.706543 
	C620.993042,876.504944 620.177795,881.934143 615.636719,886.129822 
	C614.950684,886.763672 614.423340,887.836487 614.298279,888.769958 
	C612.623779,901.267090 602.340820,902.972412 592.996338,905.861145 
	C592.682373,905.958191 592.331482,906.021240 592.008240,905.990723 
	C578.253418,904.691345 567.185425,911.038635 556.437378,918.390869 
	C553.934509,920.103027 551.504028,921.765869 550.117065,924.606201 
	C549.614014,925.636292 548.877869,926.599304 548.079712,927.431335 
	C539.433777,936.444031 530.863708,945.533752 522.044922,954.374878 
	C516.242310,960.192322 511.603180,959.093933 509.304260,951.224487 
	C505.803284,939.240295 497.819092,930.751343 488.471649,923.273560 
	C485.249207,920.695618 481.087067,920.212769 477.079529,920.100525 
	C465.526062,919.776794 454.304474,918.148254 443.221588,914.494446 
	C436.012421,912.117676 428.237396,911.389648 420.676666,910.165161 
	C412.594025,908.856140 404.686829,907.420044 397.552032,902.851257 
	C391.348755,898.878967 384.565247,896.312683 376.861847,896.580078 
	C366.746307,896.931274 357.378815,892.362061 347.400024,891.591187 
	C343.418518,891.283569 339.408722,891.154907 335.464661,890.581421 
	C312.428955,887.231445 296.637421,875.102539 289.949341,852.337769 
	C288.225677,846.470947 284.580933,842.573730 280.099365,838.490723 
	C268.894012,828.282043 256.413818,820.269836 243.054092,813.337708 
	C232.805145,808.019775 226.657501,798.873047 221.940750,788.754456 
	C217.311737,778.824097 211.149628,770.019409 203.689102,762.068726 
	C199.272583,757.362244 197.196457,751.270935 193.995117,745.845642 
	C193.235840,744.558960 192.657303,742.880249 191.507797,742.155640 
	C184.175720,737.533569 182.923264,729.940063 180.312164,722.478394 
	C177.257599,713.749390 176.714676,704.965454 176.130386,696.095947 
	C175.676727,689.209473 171.337357,684.512756 168.072571,679.213501 
	C163.755402,672.205994 164.191925,670.326294 171.819199,667.588074 
	C181.558273,664.091675 190.075317,658.352112 197.042114,651.032898 
	C201.100525,646.769104 201.285980,640.063171 199.854340,634.073730 
	C198.373871,627.880066 201.008698,623.591248 207.424484,622.811768 
	C209.591537,622.548523 211.741623,621.277222 213.527771,621.287415 
	C219.724060,621.322876 224.195389,616.028320 230.354156,616.425720 
	C230.982239,616.466309 231.446655,615.759705 231.429092,614.115356 
	C216.536255,616.790344 202.672729,622.944397 188.255615,626.277771 
	C187.246201,623.689941 188.673325,623.057251 189.544525,622.133911 
	C190.616486,620.997742 192.824554,620.463013 192.133057,618.333496 
	C191.451645,616.235107 189.447601,616.132690 187.575226,615.995544 
	C186.780380,615.937256 185.997574,615.714600 185.059692,614.985535 
	C198.095703,608.776672 212.159943,605.420044 225.521667,600.131653 
	C225.059662,598.319946 223.556870,598.197815 222.753738,598.658813 
	C216.707581,602.128845 209.546738,602.065796 203.398682,604.636353 
	C195.925583,607.760864 187.895767,608.904236 180.558624,612.282532 
	C174.743729,614.960022 172.071335,613.099731 171.977768,606.850159 
	C171.948090,604.867004 171.801285,602.823853 171.279007,600.926208 
	C170.691010,598.789795 170.033783,601.725891 169.650146,601.398865 
	C167.806534,592.554321 164.626312,584.333862 165.641724,575.366577 
	C166.483841,567.929749 171.724319,559.070618 178.977707,556.442017 
	C181.438522,555.550354 183.048218,553.538574 185.240768,552.308167 
	C191.048721,549.048767 197.016510,550.072815 202.893890,549.228943 
	C193.552353,546.568359 184.924805,548.767517 177.074326,553.934814 
	C165.521118,561.539307 160.217194,576.037842 163.866501,589.461121 
	C165.785065,596.518066 168.138443,603.457092 170.315186,610.443237 
	C170.902817,612.329224 171.678589,614.180054 170.920242,616.567993 
	C166.597061,615.945129 165.499252,612.735474 164.888458,609.300720 
	C163.953949,604.045471 162.677856,598.987244 159.169952,595.053833 
	C157.006943,595.044861 157.251297,597.073547 155.350845,598.195557 
	C149.987991,588.623901 151.214691,577.969238 152.572815,568.714722 
	C155.429642,549.247803 181.510086,524.527344 216.370590,537.384460 
	C213.822922,533.440613 197.191666,529.969910 190.888062,531.610901 
	C153.515060,541.339905 146.548721,557.418884 149.681030,596.127686 
	C146.399719,596.349121 145.603622,593.922913 144.725220,591.679565 
	C142.471039,585.922791 143.000992,579.860168 142.929764,573.883911 
	C142.871155,568.966064 142.456604,564.427307 138.657288,560.537781 
	C135.901443,557.716553 137.335449,549.638855 140.800018,545.721863 
	C142.103104,544.248535 143.639435,542.659729 145.400864,541.970154 
	C152.454254,539.208740 156.938248,533.813599 161.168777,527.911011 
	C163.245285,525.013733 165.161331,522.259705 164.507645,517.311096 
	C168.523758,520.837585 172.818787,521.612854 176.562393,523.313538 
	C181.650391,525.624878 187.969086,528.463135 193.929626,527.348511 
	C198.667084,526.462524 203.194839,524.237305 208.212982,524.182190 
	C208.837326,524.175293 209.239716,523.414795 209.075882,522.491882 
	C207.480438,520.502075 205.787140,522.259338 204.226791,522.672180 
	C195.125443,525.080139 186.267349,525.258240 177.401733,521.315552 
	C162.967896,514.896423 155.637680,501.008636 157.627594,483.026428 
	C159.055466,470.123260 170.735413,458.318237 184.605881,455.759247 
	C195.784866,453.696808 196.269699,454.046997 196.338425,465.232727 
	C196.404831,476.037628 196.352814,486.843201 196.352814,497.648499 
	C196.778549,497.645721 197.204300,497.642975 197.630035,497.640228 
	C197.630035,484.650513 197.632797,471.660797 197.626938,458.671082 
	C197.626083,456.793152 197.631058,454.594666 195.159058,454.497314 
	C189.838226,454.287903 183.710770,452.744446 179.361877,454.804565 
	C172.900970,457.865112 165.190674,459.843475 160.993393,466.779266 
	C159.289948,469.594147 156.911682,471.991119 155.677246,475.342743 
	C152.634338,472.991028 152.725723,470.425598 154.763733,467.675079 
	C156.543961,465.272522 158.194473,462.723816 160.272247,460.601929 
	C164.897018,455.878754 165.032776,455.376160 160.930573,450.429871 
	C160.998032,450.108215 160.995377,449.549561 161.151428,449.501068 
	C166.608856,447.803436 170.635895,442.317719 177.301102,443.653076 
	C179.440964,444.081787 181.649811,443.935852 183.432663,441.507996 
	C184.872986,439.546661 187.833466,440.999756 190.089813,440.671906 
	C192.405197,440.335541 195.237534,441.749725 197.348755,438.295410 
	C201.807755,437.046875 206.051697,438.666626 209.649307,435.925934 
	C205.279938,435.592285 201.080887,436.417023 196.990372,437.981598 
M803.794861,514.115540 
	C808.345276,515.029785 812.895752,515.943970 817.446167,516.858215 
	C814.288025,514.415344 810.573242,513.899597 807.440308,511.651489 
	C805.898254,510.545044 803.472046,511.269745 802.356934,514.344299 
	C798.197021,515.947876 799.349487,519.129883 799.589722,523.057861 
	C801.649475,519.681030 802.481812,516.903076 803.794861,514.115540 
M222.349396,329.260529 
	C218.478806,334.022614 217.785965,340.156464 215.201462,345.482819 
	C218.356415,340.237610 222.018478,335.240509 223.516693,328.634338 
	C224.582840,327.561707 225.608673,326.475311 224.700516,324.335205 
	C222.426712,324.582886 219.911331,322.525024 217.087234,324.774933 
	C219.437653,326.485291 223.792160,324.175018 222.349396,329.260529 
M393.074615,179.836090 
	C392.763458,183.708191 394.943268,186.879379 395.882050,190.373962 
	C396.994446,194.514801 399.159119,196.788025 403.195770,198.719376 
	C403.437347,200.465591 404.341644,202.152756 405.645844,202.942490 
	C412.807220,207.278992 420.546875,210.048676 428.961426,210.778229 
	C433.123993,211.139130 436.430969,207.995102 440.408142,208.014755 
	C446.696381,208.045807 450.950806,203.929077 455.570435,200.758865 
	C458.035492,199.067276 459.841431,196.397125 462.147156,194.317337 
	C465.119141,191.636566 463.972595,187.908752 462.949371,184.572632 
	C461.969513,181.377884 459.598907,182.400330 456.644012,182.591156 
	C457.759583,183.570068 458.163727,184.124252 458.707306,184.370224 
	C463.182861,186.395508 462.948914,189.024002 460.063721,192.407532 
	C452.443024,201.344482 442.788177,206.147842 431.157196,207.277222 
	C420.371338,208.324524 411.316193,204.295486 402.709839,197.377792 
	C398.260071,191.891617 395.223755,185.657379 392.973541,178.069534 
	C392.223694,173.448669 393.530365,168.571930 391.911713,162.677063 
	C388.164673,169.149643 389.225525,174.134476 391.405029,179.066391 
	C391.798737,179.957367 392.491211,179.145126 393.074615,179.836090 
M726.172546,288.827026 
	C726.275696,292.714508 725.845093,296.885986 731.828308,298.407196 
	C729.667175,294.546265 727.834717,291.272491 725.879578,287.182495 
	C723.484741,279.726105 724.443481,271.998108 724.689026,264.261353 
	C723.464111,264.736572 722.775696,265.194550 722.713745,265.725616 
	C721.940430,272.354431 722.263245,279.007935 722.526489,285.647339 
	C722.602600,287.569153 723.916748,288.572968 726.172546,288.827026 
M320.547302,780.486938 
	C318.272095,778.793457 315.675476,777.800598 312.594269,776.475769 
	C311.626343,775.844666 310.657990,775.214172 309.690552,774.582275 
	C292.862854,763.592529 289.101379,741.800049 301.078308,725.647339 
	C303.234436,722.739502 304.965729,722.214417 307.973633,724.416077 
	C314.408112,729.126038 321.039673,733.567505 327.608337,738.093018 
	C334.675934,742.962280 341.763824,747.802002 348.893860,752.689636 
	C352.075531,749.301697 352.068024,745.650574 351.596771,742.010071 
	C350.056854,730.113953 340.056915,720.518005 327.997559,719.214172 
	C318.480072,718.185242 318.471558,718.169800 318.993988,708.127075 
	C319.016418,707.696106 318.827148,707.254150 318.475739,705.561157 
	C315.223267,709.635010 316.533325,713.458191 316.462006,716.923096 
	C316.426270,718.660339 317.752014,719.479370 319.453033,719.661011 
	C324.433472,720.192932 329.005768,722.364685 334.029633,723.108276 
	C337.326904,723.596252 341.027740,725.708862 343.889557,728.737305 
	C347.863159,732.942322 347.400299,738.950378 351.386230,743.536011 
	C348.364014,743.922729 348.731110,749.148010 346.114288,747.707581 
	C343.853638,746.463196 340.552429,746.227173 339.407776,744.572632 
	C335.442047,738.840210 328.505127,737.226318 323.972504,732.327271 
	C320.382202,728.446655 314.407196,727.807678 310.861938,723.045532 
	C309.781433,721.594177 304.896790,718.371887 301.140167,721.156616 
	C295.131989,725.610474 289.954590,745.018738 291.922668,750.836914 
	C293.389526,755.173462 293.582153,760.107056 296.414032,763.779785 
	C300.813385,769.485107 304.227295,776.729797 312.726593,777.362976 
	C312.134094,779.788269 313.635284,780.407410 315.564148,780.616760 
	C317.328339,780.808105 319.097443,780.954468 321.336182,781.662476 
	C326.371063,785.356384 332.019287,784.325989 336.925842,782.307556 
	C339.436554,781.274719 343.458038,781.933289 345.623108,776.955872 
	C340.074463,779.212341 335.546387,780.471130 330.796356,780.718750 
	C327.507782,780.890198 324.169128,779.536316 320.547302,780.486938 
M361.770447,760.788696 
	C363.405060,760.477234 364.038544,759.456299 364.705658,757.894409 
	C367.070312,752.358093 366.643829,746.595886 366.645172,740.849670 
	C366.647217,732.098877 363.335358,725.641418 355.630005,719.907898 
	C356.439056,721.421082 356.824982,722.523315 357.517609,723.376709 
	C362.093689,729.014648 363.859619,735.651367 364.741028,742.683228 
	C365.565521,749.261108 362.479187,754.982361 360.526825,761.481262 
	C357.029022,767.096985 352.426636,771.730713 346.941071,776.151062 
	C353.210297,775.620911 360.082245,768.053406 361.770447,760.788696 
M661.260437,726.157471 
	C656.091980,725.618347 652.336731,728.209717 648.631348,731.414246 
	C643.148438,736.156128 638.015015,740.783813 634.992371,747.874756 
	C633.626038,751.080139 632.702026,754.082336 634.018372,756.458374 
	C635.411316,758.972473 638.783203,757.648621 641.966003,757.242310 
	C634.993896,753.051636 634.834595,752.573425 638.474487,745.761963 
	C639.483459,743.873779 640.750122,742.111633 642.006409,740.369446 
	C647.060791,733.360413 654.742126,729.974304 662.811157,725.929382 
	C669.654907,724.477112 676.496704,723.836304 683.389038,725.709473 
	C684.674255,726.058777 686.642883,727.164612 687.029907,724.874878 
	C687.425964,722.532227 685.225525,722.431641 683.645630,722.400940 
	C677.867065,722.288818 672.084839,722.373474 666.305725,722.279175 
	C663.647156,722.235840 662.352722,723.520203 661.260437,726.157471 
M758.230835,361.682037 
	C758.996216,364.967651 760.664673,367.849731 762.481812,370.610596 
	C767.631714,378.434937 776.582458,381.277985 784.307129,377.282867 
	C781.369812,377.282867 778.892273,377.345184 776.419678,377.261902 
	C774.651855,377.202362 772.455933,377.939850 771.265503,376.272827 
	C766.738525,369.933655 758.779907,365.624451 759.387085,356.335297 
	C758.920410,357.906097 758.453674,359.476868 758.042480,360.105316 
	C757.914673,353.304535 757.797119,346.503510 757.650085,339.703125 
	C757.622009,338.403656 757.919373,336.187744 756.743530,336.112305 
	C752.793213,335.858856 750.016418,332.646637 746.176392,332.391907 
	C744.046875,332.250610 742.731140,333.121460 742.274597,335.314056 
	C740.667542,343.032196 741.065552,350.801819 741.983337,358.520813 
	C742.091553,359.431366 741.771362,362.877319 745.054382,362.842804 
	C744.946167,372.622253 752.264038,379.767090 755.086914,388.680206 
	C750.067444,389.415161 749.893372,383.602509 744.631409,383.362091 
	C746.806335,389.225189 746.769775,395.213593 750.965576,399.487335 
	C753.336548,401.902435 756.969788,402.017548 759.504639,399.315186 
	C761.997070,396.658142 760.260986,394.478943 757.786865,392.766968 
	C757.241028,392.389313 756.819946,391.855927 757.493164,390.225800 
	C759.734314,393.015686 762.801697,391.416840 765.782715,392.187927 
	C770.692993,393.458038 775.754944,396.300537 781.249451,394.445709 
	C788.714783,391.925537 796.366821,390.174744 803.762634,387.174957 
	C811.910583,383.870087 819.527283,379.647736 827.146973,375.510101 
	C829.550903,374.204712 832.412415,374.695557 834.226562,372.803314 
	C837.470947,369.419128 842.309753,369.640686 846.145996,367.063507 
	C850.407532,364.200623 852.373596,361.274475 849.154785,355.965363 
	C849.215393,363.635406 849.166443,363.527588 841.466187,367.022858 
	C826.634338,373.755219 811.941711,380.798889 797.048462,387.390717 
	C777.052490,396.241058 760.752808,393.648712 750.202393,372.710602 
	C748.418274,369.169922 746.714600,365.588715 744.926025,361.195312 
	C744.657532,359.724670 744.465332,358.235138 744.106873,356.786804 
	C742.854797,351.729462 742.524536,346.597321 742.757874,341.416046 
	C743.017395,335.651978 744.216553,334.888580 749.838562,335.699524 
	C754.338074,336.348572 756.378662,337.701141 755.391663,342.970184 
	C754.252563,349.050476 755.451599,355.222382 758.230835,361.682037 
M761.569763,632.669250 
	C766.368103,627.503784 766.331970,627.547363 771.792847,632.077087 
	C772.927246,633.018066 773.675232,634.979370 776.681396,634.000061 
	C774.585266,633.329285 773.225952,632.348206 773.639038,630.740173 
	C774.154358,628.734009 771.607727,628.839417 771.543091,627.574219 
	C772.300720,626.115601 774.414429,627.493958 774.745667,625.643127 
	C769.317749,622.489258 769.317749,622.489258 771.053772,616.149353 
	C772.589844,610.539368 773.051086,610.298218 778.659058,612.115112 
	C782.916809,613.494629 787.170654,614.887573 791.443298,616.219666 
	C792.804749,616.644043 794.325745,617.355164 795.219727,615.475830 
	C794.965820,614.385071 794.091736,614.283020 793.316956,614.019653 
	C790.182068,612.953857 786.982117,612.950500 783.842041,610.786072 
	C779.712219,607.939453 771.535522,610.838684 768.534546,614.742432 
	C765.912292,618.153381 768.181213,622.148987 767.228882,625.944458 
	C763.227295,626.516663 760.307007,628.188477 760.697998,632.616638 
	C757.920837,632.875061 755.862671,638.002869 758.024841,640.401367 
	C761.719910,644.500427 765.546082,648.603455 770.832642,650.934937 
	C768.166321,647.680969 765.404785,644.418945 762.015869,642.057068 
	C757.840820,639.147339 757.286438,636.489380 761.569763,632.669250 
M750.895630,700.571411 
	C750.793457,701.204346 749.266479,701.477478 750.523376,702.472107 
	C756.909607,707.525940 760.053894,716.913269 754.575500,724.591370 
	C748.486511,733.125549 742.894775,734.983093 733.669739,729.798096 
	C732.609253,729.202087 731.183594,728.802246 730.193848,730.261780 
	C737.066772,736.783325 745.871399,737.029419 752.567444,730.945129 
	C762.657593,721.776917 762.041504,709.900452 750.605652,699.475037 
	C743.326721,692.419800 735.815125,685.616333 727.829407,679.375244 
	C724.804871,677.011353 724.110962,674.958191 727.203979,672.255737 
	C728.326477,671.274902 729.348877,670.167969 730.338989,669.049683 
	C732.294312,666.841248 734.070251,666.973206 736.239319,668.944519 
	C740.910217,673.189636 745.739685,677.261536 750.539368,681.363220 
	C752.572937,683.101196 754.694519,684.736084 756.776123,686.417786 
	C751.399414,679.893250 745.823547,673.736328 739.761047,668.103088 
	C734.219543,662.953857 724.265808,666.158691 722.576843,673.569336 
	C721.906189,676.512146 721.854858,680.153503 726.425232,680.719055 
	C727.875610,680.898560 728.692871,681.740784 729.620850,682.786011 
	C732.403503,685.920349 735.009033,689.397827 738.361511,691.792603 
	C742.417603,694.689941 744.784790,700.300903 750.895630,700.571411 
M319.005371,744.966553 
	C319.005371,744.966553 318.756073,744.713501 318.412415,744.200867 
	C315.259888,741.958008 312.668396,738.811462 308.720825,737.822754 
	C302.584900,748.790039 307.621735,759.417297 317.000092,765.460938 
	C325.737549,771.091553 337.419830,769.242188 343.136078,761.186523 
	C335.009033,756.098999 328.061279,749.321899 319.005371,744.966553 
M373.577881,216.648407 
	C382.151825,209.670670 379.095886,192.451721 369.641479,184.280685 
	C360.348846,176.249435 346.768524,176.646240 338.649872,185.473175 
	C329.964661,194.916061 330.526855,208.712326 338.017059,214.898209 
	C339.966919,211.815903 335.981964,210.783646 335.838654,208.545700 
	C335.304138,200.199387 334.515259,191.927917 341.966248,185.470612 
	C346.695282,181.372284 361.011200,180.102341 365.775299,184.348022 
	C370.607147,188.654099 373.778595,194.002060 376.580994,199.345703 
	C378.239471,202.508133 379.238831,207.620560 374.743317,211.041000 
	C373.007721,212.361526 372.718506,214.768112 372.296265,217.168259 
	C365.766846,221.360947 358.815796,224.316330 350.905731,224.457428 
	C358.329681,227.477432 368.925751,223.886429 373.577881,216.648407 
M638.580872,194.474304 
	C636.954407,193.030640 635.170654,191.913666 632.336060,191.568298 
	C629.430786,197.611801 626.487854,203.733582 623.544922,209.855347 
	C624.022888,210.106415 624.500854,210.357483 624.978821,210.608551 
	C627.165344,207.767349 627.965393,204.029205 629.413940,200.876968 
	C631.633118,196.047577 633.269226,194.448517 639.209595,195.571976 
	C644.529968,198.527878 649.755493,201.693115 655.581299,203.593185 
	C656.902649,204.024124 658.704895,203.128342 659.504028,204.959595 
	C660.572510,207.408386 662.867920,207.734924 664.923340,207.583832 
	C672.976379,206.991776 681.601685,210.236938 688.818237,203.692703 
	C691.789856,200.997894 696.038452,199.990448 698.668274,196.551987 
	C699.766541,195.115967 699.229065,193.276459 700.555298,192.090378 
	C704.870789,188.230835 706.145447,182.880997 706.501648,177.593063 
	C706.833923,172.660965 707.076843,167.795090 704.258972,162.738022 
	C702.465698,159.519852 702.165100,155.822983 697.518555,154.331558 
	C698.761963,156.657822 699.783752,158.544907 700.783386,160.443680 
	C710.056335,178.057907 699.207275,200.943344 679.755981,205.127731 
	C670.997986,207.011765 663.048035,204.288956 654.926941,201.801712 
	C649.345520,200.092270 644.907959,195.832047 638.580872,194.474304 
M783.189087,309.177765 
	C783.736084,308.373413 784.122742,307.360626 784.855042,306.797058 
	C791.915344,301.363434 796.398438,293.712280 799.067810,285.806091 
	C802.128723,276.740204 798.943420,267.497040 793.897949,259.442871 
	C793.188416,258.310303 793.465332,255.111267 789.841492,255.702530 
	C798.121094,269.050079 800.151062,282.686127 791.291260,296.069427 
	C782.721191,309.014984 769.788391,314.189209 754.353210,314.181335 
	C759.419617,315.287720 763.779846,316.525757 769.052490,314.044891 
	C773.224609,312.081879 777.709351,308.804199 783.149048,310.677521 
	C782.008179,314.059967 779.297180,316.607880 776.761353,318.393951 
	C769.379822,323.592957 769.624268,331.843079 767.434326,339.069183 
	C765.897522,344.140167 769.511597,348.622833 770.173218,353.450775 
	C770.708862,357.359802 772.787537,360.770081 774.951782,363.115021 
	C778.197693,366.632050 781.667297,370.031189 784.497314,373.887177 
	C786.942261,377.218475 788.988281,376.988342 791.842041,374.508087 
	C770.910095,364.892181 766.762817,339.666351 773.542358,326.280243 
	C778.699463,316.097809 787.144836,310.569305 797.689331,307.858826 
	C808.543335,305.068787 817.984680,309.297729 827.104980,315.347473 
	C822.183411,306.433838 813.339233,305.903046 805.462891,304.610992 
	C801.164185,303.905792 796.420898,306.825226 791.619019,306.704590 
	C791.070923,306.690826 790.235229,307.233124 789.992432,307.738434 
	C788.464355,310.919128 785.943542,310.624146 783.189087,309.177765 
M678.526367,141.418091 
	C682.903625,143.866089 687.280884,146.314102 692.243652,149.089600 
	C689.228760,143.746140 682.958374,140.432556 677.869751,140.302277 
	C677.666870,139.336273 677.698608,138.085556 676.630432,137.730988 
	C671.657104,136.080124 667.543335,132.767868 662.827759,130.683975 
	C658.620178,128.824554 654.245667,127.405708 650.343689,124.834656 
	C648.897705,123.881958 647.524780,124.383942 646.205505,126.121399 
	C641.593323,132.196091 639.905457,139.645874 636.466919,146.273300 
	C633.683044,151.638901 630.928162,157.166443 628.220398,162.583466 
	C625.793640,167.438324 622.948242,172.405640 620.816650,177.281952 
	C618.029175,183.658600 614.355530,189.493759 611.582581,195.767090 
	C609.650879,200.137146 605.406860,204.327148 608.114807,210.703720 
	C608.926880,215.456818 614.409851,212.353546 616.171387,215.533844 
	C614.545227,212.024063 610.969238,211.454056 608.055237,209.290985 
	C608.347473,208.515793 608.578674,207.710800 608.940674,206.969696 
	C621.172791,181.925201 633.563354,156.956177 645.524170,131.782959 
	C647.656250,127.295670 649.489746,127.099670 653.346252,129.210953 
	C661.338196,133.586212 669.550171,137.549103 678.526367,141.418091 
M789.979492,358.981903 
	C789.979492,358.981903 790.167358,359.136353 790.542358,359.657043 
	C795.968201,366.362274 803.011475,368.248535 811.071472,365.986725 
	C827.234375,361.451050 832.578857,346.087982 823.212280,331.231842 
	C818.735657,324.131531 812.129028,319.849091 803.723999,320.473969 
	C794.265991,321.177094 786.677551,326.093719 783.910095,335.462219 
	C781.397644,343.967133 782.999756,352.257141 789.979492,358.981903 
M316.435486,275.258698 
	C319.922852,273.946259 322.026642,271.466064 322.626404,267.784058 
	C322.862213,266.336334 322.327271,264.723999 323.383514,263.456940 
	C328.163940,257.722443 326.490448,250.674973 324.901428,245.098068 
	C323.155212,238.969360 320.319214,232.583740 315.525330,227.499146 
	C311.088898,222.793701 306.031128,218.004471 299.983795,217.656982 
	C288.671753,217.006958 277.123047,214.840378 266.163940,221.790619 
	C257.104248,227.536224 252.346939,235.833786 249.698654,245.106354 
	C247.948029,251.235962 249.534256,258.323212 249.661728,264.981049 
	C249.690567,266.488098 250.166962,267.606293 252.366501,266.807404 
	C248.698410,255.675781 250.184402,245.234711 256.555756,235.416901 
	C265.539337,221.573822 284.504944,213.913101 299.116455,219.845871 
	C322.439423,229.315842 329.901245,253.732117 315.481171,275.404602 
	C313.469513,277.699371 311.457855,279.994171 309.042023,282.750031 
	C313.692963,282.447449 315.173553,280.552673 316.435486,275.258698 
M374.804077,232.893066 
	C379.726440,233.390472 381.966888,229.209702 384.839264,226.630325 
	C389.308167,222.617294 392.441040,217.460556 392.624725,211.140045 
	C392.779419,205.818085 392.552429,200.485214 392.698273,195.162750 
	C392.898499,187.855362 389.253723,182.161133 385.167908,176.662262 
	C383.188568,173.998413 378.918701,173.212784 377.525085,171.141693 
	C373.204010,164.720123 366.234558,164.767532 360.475952,163.725983 
	C350.661896,161.950943 341.248871,165.200272 333.769165,172.141678 
	C330.954987,174.753357 326.408264,175.954514 325.927277,180.870056 
	C325.770325,182.473663 323.843689,182.365311 322.595642,182.456451 
	C320.799194,182.587616 318.977600,182.316772 317.168030,182.336090 
	C309.790680,182.414825 304.309296,187.668274 306.724945,193.556641 
	C308.680603,198.323746 310.334564,203.689056 314.382294,207.413284 
	C315.252228,208.213699 316.006622,208.728790 316.328369,209.999649 
	C317.727692,215.526489 321.579224,219.714294 324.201416,225.128006 
	C325.277588,222.480469 324.372040,220.888092 323.465027,219.270050 
	C319.073883,211.436447 314.986664,203.412964 310.210907,195.822205 
	C307.570862,191.626007 307.661896,189.397675 312.268707,186.960754 
	C317.983246,183.937851 317.803833,183.613327 321.289948,189.184158 
	C321.619507,189.710831 322.081696,190.154526 322.458679,190.608322 
	C323.916534,189.895020 323.806580,188.544617 324.213531,187.512894 
	C330.297028,172.090317 350.546204,162.046265 366.290070,167.223053 
	C390.115997,175.057358 400.619202,206.543854 382.821289,225.695358 
	C380.243805,228.468872 376.946869,230.573792 373.281799,233.232620 
	C365.832428,236.894424 357.917450,237.508987 348.882812,235.888672 
	C353.330811,243.583618 357.279419,250.110062 360.928406,256.799927 
	C366.174744,266.418182 366.083557,266.473480 355.617798,270.828552 
	C355.200592,271.002136 354.682159,270.932373 354.027130,270.993042 
	C345.040436,255.729752 336.066864,240.488770 327.093292,225.247787 
	C327.609406,229.336807 328.585205,233.363220 330.857513,236.428558 
	C335.042236,242.073853 338.119446,248.377975 341.662262,254.335007 
	C345.070618,260.065948 347.696533,266.270294 351.789734,271.685974 
	C353.317291,273.707092 355.123383,274.436249 356.801086,273.265167 
	C358.479370,272.093689 360.414825,271.699768 362.057556,270.581482 
	C367.473877,266.894226 368.262604,263.831268 364.783600,258.047577 
	C362.904938,254.924423 360.202179,252.217529 358.765808,248.931763 
	C357.514740,246.069901 354.449860,243.145096 355.441406,240.282440 
	C356.500641,237.224518 360.647614,239.603851 363.063354,238.563660 
	C366.806396,236.951935 372.313690,238.640900 374.804077,232.893066 
M395.457123,777.382996 
	C394.258240,778.971619 392.981842,780.508057 391.872498,782.156860 
	C381.744659,797.209961 371.553131,812.221924 361.611633,827.397461 
	C359.452667,830.693176 357.101837,831.537659 353.733002,830.050171 
	C351.524139,829.074890 348.911377,828.950073 347.067780,827.288574 
	C347.268097,824.870300 348.700348,823.390320 349.797424,821.766418 
	C364.696198,799.713989 379.666443,777.709534 394.502533,755.614990 
	C400.426270,746.793152 400.283691,746.757690 410.107056,750.153137 
	C412.628357,751.024597 414.014435,752.423279 414.133209,755.145264 
	C414.343597,759.966187 414.880676,764.780945 414.907318,769.600342 
	C415.010193,788.206909 417.171326,806.665100 418.351898,826.475647 
	C432.910797,805.377014 446.744812,785.328857 460.652313,765.174255 
	C457.975281,763.755737 456.532501,764.941345 455.672852,766.268127 
	C451.790131,772.260498 448.110870,778.384583 444.337250,784.448059 
	C441.907257,788.352539 439.543793,792.754089 436.595276,795.769409 
	C431.901367,800.569580 429.141632,806.434875 425.556580,811.731995 
	C423.625122,814.585815 422.030579,815.686523 418.710815,816.330933 
	C418.710815,813.424500 418.774689,810.934265 418.699921,808.448120 
	C418.350220,796.824341 420.059052,785.039001 417.479462,773.623108 
	C416.123444,767.622131 415.489746,761.746399 415.715210,755.740540 
	C415.890900,751.060913 415.739777,747.233398 409.399292,748.246094 
	C408.815826,748.339294 408.089172,747.999207 407.526093,747.685913 
	C400.730194,743.903992 400.343048,744.494690 395.483093,750.465698 
	C387.124847,760.734680 380.886322,772.389221 373.136871,783.040161 
	C368.957001,788.785095 365.184113,794.841187 361.495331,800.919434 
	C360.378052,802.760376 358.610260,803.805420 357.422089,805.633484 
	C353.759125,811.268921 351.052368,817.523865 346.546906,822.621216 
	C344.029907,825.468933 345.000336,831.416260 348.047943,831.532166 
	C352.667480,831.707825 358.041748,833.264832 361.739166,830.530823 
	C365.569855,827.698120 367.784363,822.681030 370.351288,818.534790 
	C372.792725,814.591187 375.361450,810.282898 377.884796,806.640564 
	C380.619904,802.692688 382.629272,797.839722 386.581299,794.567688 
	C390.065918,791.682556 389.850830,786.023376 393.877808,783.633972 
	C396.940704,781.816467 397.085632,779.760986 396.732300,777.052185 
	C402.039185,778.418396 398.771729,784.468994 402.483337,787.641357 
	C403.227020,780.763733 403.083984,774.688416 401.711670,767.759399 
	C399.024872,771.237427 396.900574,773.749695 395.457123,777.382996 
M748.843811,418.664825 
	C742.857300,409.105194 735.643372,401.384583 723.640076,399.475647 
	C717.010376,398.421265 710.723572,395.633545 705.789307,390.968353 
	C692.959045,378.837646 680.259155,366.542999 670.217529,351.867523 
	C667.932373,348.527832 665.243469,345.689758 662.031860,343.206207 
	C650.778870,334.504028 640.292358,325.120270 634.657410,311.514435 
	C632.672607,306.721863 629.778198,302.504059 626.288635,298.577881 
	C623.206543,295.110168 620.604736,291.115143 618.960083,286.717621 
	C617.239563,282.117157 614.304871,278.315094 611.790161,274.202332 
	C606.631165,265.764954 599.381042,258.956512 594.063171,250.693100 
	C588.437622,241.951706 580.996033,236.129333 570.380127,235.002777 
	C570.052795,234.968048 569.718872,234.877518 569.415955,234.747833 
	C566.877502,233.661118 564.464294,232.020157 563.861877,229.389725 
	C563.249512,226.715805 566.103699,225.614731 567.851746,224.186935 
	C569.008423,223.242218 570.337280,222.511139 571.564880,221.649872 
	C573.183899,220.513962 573.915344,218.798523 572.405396,217.430344 
	C567.397217,212.892349 564.868652,205.882431 557.085571,203.985413 
	C551.670471,202.665573 546.140076,199.818726 547.869019,192.135468 
	C548.148865,190.891937 547.604126,189.929810 546.417542,189.252136 
	C545.062012,188.477982 544.709778,187.124100 545.358582,185.791183 
	C546.210632,184.040756 547.670166,183.585922 549.455139,184.449753 
	C550.182190,186.072769 549.116211,187.451950 549.102783,188.910614 
	C549.057800,193.800919 549.448120,198.641830 554.622437,201.000778 
	C558.073425,202.574036 561.806824,202.014297 565.354553,201.013550 
	C569.423218,199.865891 571.246216,197.136353 571.829285,192.809845 
	C572.592346,187.148071 569.378174,184.081207 565.825745,180.787216 
	C562.620056,177.814713 559.306091,177.329559 556.371155,180.396820 
	C554.471436,182.382172 552.907959,182.371613 550.026917,180.892700 
	C553.735107,177.764221 556.868469,174.988174 561.148926,173.867050 
	C562.852905,173.420746 564.728516,172.764313 564.005737,170.625412 
	C562.862183,167.241470 562.365295,163.181213 558.255554,161.790436 
	C553.845032,160.297867 549.166809,158.369980 544.999939,162.076187 
	C537.423645,168.814789 533.379700,177.199005 533.352417,187.559753 
	C533.333130,194.890472 536.300903,200.587173 541.140320,205.783646 
	C544.700928,209.606949 544.392273,210.845215 539.668335,213.145203 
	C536.237122,214.815796 532.685242,216.828873 529.009033,217.300491 
	C515.625977,219.017517 504.638000,225.672104 493.936035,233.129868 
	C493.117004,233.700607 492.273468,234.256088 491.382355,234.700424 
	C483.079987,238.840332 474.639984,240.371094 466.073273,235.555115 
	C462.360046,233.467651 458.542542,233.028580 454.506653,234.058731 
	C450.320374,235.127243 446.410156,234.654999 442.324371,233.101990 
	C436.550201,230.907227 429.905579,230.629486 426.141937,235.812164 
	C419.398438,245.098206 410.914703,253.718903 409.970215,266.207123 
	C409.738251,269.274017 408.815826,272.155457 406.030121,273.944885 
	C401.794403,276.665741 401.385284,280.350037 402.743561,284.845856 
	C407.119385,299.329865 408.902344,313.941956 406.524139,329.148590 
	C405.091919,338.306183 404.253113,348.230011 409.902374,356.360168 
	C416.732635,366.189911 414.859497,374.998291 409.199799,384.161316 
	C404.666077,391.501404 402.756561,392.574524 394.057465,390.864288 
	C391.028687,390.268860 389.166473,390.994629 387.130463,393.238953 
	C378.674561,402.559967 373.741913,414.084198 368.911163,425.235413 
	C364.953308,434.371552 358.547729,438.572845 350.320404,441.701569 
	C347.234741,442.874939 343.865570,444.250793 341.022156,441.170471 
	C338.263489,438.182007 338.849731,434.715210 340.114044,431.296844 
	C341.672668,427.082703 343.416992,422.959137 344.126740,418.450195 
	C346.699463,402.105957 348.896820,385.878082 342.771729,369.690277 
	C339.317505,360.561127 339.003387,350.402863 333.488770,341.864990 
	C327.091125,331.960022 316.826843,329.507538 307.028564,335.846161 
	C302.854767,338.546204 298.917542,341.662109 293.843689,342.761963 
	C291.548737,343.259460 289.741089,344.869293 288.219818,346.735199 
	C281.064209,355.511810 280.938538,365.503204 284.129913,375.516693 
	C287.045624,384.665314 288.376404,393.880432 289.220276,403.403473 
	C290.261475,415.153992 290.713043,426.956482 292.397095,438.683838 
	C293.666351,447.522491 293.911102,456.678802 292.139099,465.529419 
	C291.252502,469.957733 290.923615,473.957947 292.516968,478.206970 
	C293.381836,480.513397 293.758484,483.032257 294.126160,485.489594 
	C294.839630,490.257843 295.058624,495.123199 297.412598,499.507599 
	C299.660553,503.694458 300.597961,508.246552 301.064148,512.923401 
	C301.939758,521.707581 302.513916,530.552307 307.488922,538.325562 
	C308.269928,539.545837 308.488373,541.139954 308.900391,542.580261 
	C311.567017,551.902100 317.322754,559.390686 324.479980,565.362976 
	C331.958344,571.603210 340.709534,576.177185 348.270782,582.545837 
	C353.578186,587.016174 359.878723,590.129517 363.363495,596.653564 
	C364.475128,598.734619 366.692719,600.436584 368.759064,601.756653 
	C375.212799,605.879639 381.701843,609.984680 388.428436,613.633484 
	C396.397308,617.956055 403.626068,623.067871 410.163696,629.417419 
	C427.716705,646.465637 440.178986,667.167236 452.309601,688.018494 
	C458.001282,697.801880 464.867889,706.408508 474.266144,712.140869 
	C486.021088,719.310730 496.558136,728.554932 509.706696,733.450806 
	C513.724670,734.946838 514.906128,737.765503 512.276611,741.746155 
	C509.668854,745.693909 507.626678,750.078430 508.382477,754.894775 
	C509.927948,764.743469 512.325928,774.427002 515.238647,783.965576 
	C516.272766,787.352051 518.840149,789.273560 521.966309,790.903931 
	C529.173645,794.662781 537.051208,794.904114 544.797119,795.552185 
	C551.012146,796.072144 556.960388,789.740417 555.270630,784.036438 
	C554.431396,781.203247 552.582520,778.625793 552.847473,775.426941 
	C553.093506,772.456787 551.944458,770.161682 550.321228,767.643921 
	C548.489441,764.802795 546.102905,763.913452 542.058044,763.689087 
	C549.875000,761.490662 553.121399,766.108276 555.908325,770.519531 
	C558.154541,770.060608 558.590149,768.771545 558.831787,767.447388 
	C559.403931,764.312073 559.860840,761.079163 562.360352,758.822205 
	C564.975586,756.460938 566.354858,753.483032 567.074524,750.198425 
	C568.107056,745.486084 570.815247,742.718445 575.460510,741.303528 
	C586.999695,737.788513 595.994751,730.910339 603.175720,721.089661 
	C607.320007,715.421936 613.502869,711.621582 620.535339,710.072388 
	C628.608704,708.293884 636.764038,709.818359 644.811401,710.594299 
	C651.489014,711.238220 657.570190,711.138550 663.447632,707.203735 
	C667.411011,704.550415 671.220215,701.331970 675.977966,700.093689 
	C682.512451,698.392944 686.608276,694.053650 689.033447,688.122864 
	C693.905212,676.208679 702.243835,667.860046 715.041016,666.279419 
	C722.602295,665.345459 724.969482,661.470520 726.100037,655.375122 
	C727.825439,646.072510 729.375854,636.736816 730.919434,627.401672 
	C731.275208,625.250061 731.453857,623.027100 732.695679,621.210632 
	C738.441833,612.804993 743.312988,604.014648 745.539734,593.946045 
	C745.817932,592.688110 746.428345,591.328430 747.298523,590.406128 
	C751.660095,585.783630 753.580933,579.919556 756.115173,574.296265 
	C760.018250,565.635864 765.984558,558.902100 775.860657,556.931091 
	C778.541870,556.395935 779.133667,554.946350 778.555725,552.660767 
	C778.149292,551.053589 777.857117,549.265869 776.939331,547.963989 
	C770.452515,538.763306 770.012390,528.046326 768.828003,517.445618 
	C768.101013,510.939423 767.546448,504.520020 769.269226,498.101288 
	C772.561401,485.835419 772.156677,473.454010 770.279053,461.053833 
	C769.507080,455.955444 768.242615,450.953308 767.709717,445.789825 
	C767.258850,441.421417 765.133301,437.893646 761.584961,434.783661 
	C756.617004,430.429474 752.047607,425.485107 748.843811,418.664825 
M531.818298,847.038391 
	C527.810364,835.165649 519.645325,828.889221 507.053345,827.963562 
	C501.971558,827.590027 496.900696,826.859497 492.007568,824.765686 
	C488.077637,823.083984 483.142365,820.102295 480.199615,827.379822 
	C480.275970,810.171265 478.599609,793.643311 478.752228,777.072449 
	C478.793457,772.595947 476.918823,768.949890 475.062103,765.363892 
	C473.913635,763.145630 470.730560,764.710388 468.505341,764.270142 
	C467.504700,764.072144 466.549225,763.869507 465.971985,762.907104 
	C464.829681,761.002686 463.267700,761.697266 460.437653,762.171082 
	C465.136169,765.780273 468.978760,768.626038 474.538849,770.023438 
	C475.651917,790.966858 477.361328,812.091492 477.633362,833.406067 
	C474.040436,833.401733 473.664124,830.004578 471.490387,830.357422 
	C466.802490,831.118408 466.674866,827.711487 466.322693,824.836487 
	C464.848511,812.801575 462.972778,800.803894 462.686951,788.644592 
	C462.655304,787.298706 463.297546,785.710144 461.781921,784.355408 
	C458.704865,788.841187 455.687500,793.208496 452.702118,797.597656 
	C442.309570,812.877258 431.818146,828.091736 421.618591,843.499268 
	C419.020721,847.423645 416.058990,847.579956 412.207184,846.352783 
	C408.546173,845.186462 405.732513,844.013306 405.825775,839.023499 
	C406.102692,824.206055 404.189331,809.425537 404.643066,794.584351 
	C404.672119,793.634155 405.028503,792.375916 403.364288,791.642700 
	C403.364288,808.098083 403.238678,824.245972 403.433044,840.389893 
	C403.500244,845.971069 415.387299,851.802734 420.276337,848.938782 
	C420.687073,848.698120 421.109314,848.332397 421.321869,847.919556 
	C425.755280,839.310974 432.904449,832.603699 437.791016,824.305054 
	C444.018402,813.729492 452.346252,804.570251 458.744019,793.364197 
	C464.002808,816.143066 463.319519,838.749634 462.932434,861.645325 
	C458.220367,859.512451 456.978729,856.425964 458.874603,851.774109 
	C463.129120,841.334900 461.452942,831.398682 456.575378,821.712646 
	C455.211334,819.003845 452.725159,816.821655 450.537384,820.174316 
	C445.967804,827.176941 440.083618,834.335815 445.091339,843.522278 
	C449.209198,851.076355 449.295715,859.135437 449.117828,867.316284 
	C449.066284,869.688416 449.077057,872.067383 450.664429,873.979980 
	C455.107697,879.333679 460.144806,883.834778 467.370911,885.009705 
	C471.317383,885.651367 475.316010,886.102783 479.182587,887.072693 
	C484.344543,888.367493 488.950989,887.586731 493.590698,885.030579 
	C500.517090,881.214539 507.912292,879.695007 515.772766,881.846313 
	C520.993286,883.275146 526.337708,883.067688 531.669556,882.952881 
	C536.003418,882.859558 538.569519,880.745911 538.904297,876.334229 
	C539.121582,873.471985 539.720398,870.729004 540.924927,868.131958 
	C542.555359,864.616455 541.010071,862.939880 537.682068,861.875549 
	C530.917969,859.712341 530.333679,858.604004 531.522278,851.816467 
	C531.750488,850.513672 531.785889,849.177185 531.818298,847.038391 
M476.372162,195.833542 
	C479.922791,199.685059 484.468842,196.970535 488.507996,197.616241 
	C491.401337,198.078781 492.705902,196.470535 492.686523,193.507401 
	C492.621338,183.527618 493.007874,173.529434 492.491547,163.576157 
	C492.301208,159.906906 492.395508,156.302750 492.870361,152.773804 
	C493.267700,149.821106 494.078369,145.422058 496.028381,144.519058 
	C499.256714,143.024094 502.244446,140.428055 506.434967,140.576477 
	C511.962341,140.772232 513.996521,137.633270 514.800842,132.364517 
	C515.711121,126.402054 512.043091,124.073868 507.991028,121.417679 
	C505.746857,121.985779 504.531982,124.893440 501.560730,124.386177 
	C498.902740,123.932404 496.485413,124.405960 494.412994,126.766052 
	C493.459778,127.851578 490.703400,129.137589 489.511810,127.328987 
	C486.769867,123.167336 482.830109,124.365845 479.183960,124.337402 
	C471.798584,124.279785 469.339905,128.365067 472.683502,134.742294 
	C473.119476,135.573822 473.253998,136.684311 473.186035,137.641312 
	C471.819275,156.878983 475.311920,175.855560 476.372162,195.833542 
M688.084961,746.082520 
	C689.265198,745.140198 689.291931,744.073914 688.156128,743.172791 
	C685.828613,741.326416 683.717102,739.227356 680.690247,738.330811 
	C666.844604,734.229614 652.941040,740.784912 647.621094,754.261475 
	C646.510193,757.075562 645.248718,759.195312 641.955994,759.532043 
	C643.998962,759.472717 647.202393,761.246948 647.653870,758.801208 
	C648.349426,755.033447 651.352173,753.170532 653.015991,750.330688 
	C657.217163,743.160095 664.369263,740.020386 672.504150,738.609497 
	C677.291748,737.779175 679.684143,743.189392 684.320557,741.909180 
	C684.956848,745.666565 684.281311,747.425781 680.341003,748.687012 
	C675.087585,750.368469 669.861694,752.991394 665.482666,756.334656 
	C659.895325,760.600159 653.727417,763.782166 647.635742,766.944519 
	C638.903015,771.477661 638.918823,771.084351 642.339233,779.053284 
	C646.263611,788.196655 653.804626,793.637695 662.383179,795.705444 
	C672.668579,798.184631 684.026306,799.188904 693.214050,791.625549 
	C695.362244,789.857117 698.002075,790.368469 699.905579,788.048523 
	C705.494324,781.237244 710.924500,774.714478 709.806885,764.954773 
	C709.222839,759.854736 709.684326,754.636230 709.645996,749.471436 
	C709.636292,748.166016 709.546570,746.961609 708.867004,745.669983 
	C706.242004,740.680542 703.257935,735.953979 699.038574,732.195923 
	C696.215942,729.681885 693.908325,725.898499 688.939575,726.523254 
	C689.511658,728.884460 691.290588,729.307312 692.580750,730.216553 
	C702.626648,737.296082 708.025085,747.191589 708.989258,759.206726 
	C710.315430,775.733582 699.361572,789.283569 681.139954,794.586060 
	C668.334534,798.312500 651.229065,790.534973 644.107544,777.792358 
	C642.346863,774.642151 642.575134,772.552917 646.130310,770.547424 
	C660.045837,762.697754 673.786926,754.538818 688.084961,746.082520 
M641.991577,171.401520 
	C641.032166,173.335129 640.080750,175.272736 639.110840,177.201065 
	C638.286560,178.839981 638.617859,180.092377 640.329651,180.863464 
	C648.943298,184.743744 656.973938,190.041199 666.244873,192.309174 
	C676.450745,194.805847 684.712341,190.682602 688.378906,181.818253 
	C692.578247,171.665802 689.969360,162.970535 680.964478,157.236069 
	C679.006409,155.989120 677.075684,154.622650 674.959229,153.715088 
	C668.336609,150.875122 662.388367,146.510529 655.086609,144.432098 
	C650.706543,153.447891 646.508423,162.089264 641.991577,171.401520 
M267.459808,710.471497 
	C262.535370,712.439636 260.160645,707.554443 256.689758,705.995911 
	C251.511948,703.670837 247.101440,699.044189 245.864105,693.261780 
	C243.672180,683.018127 252.213684,671.414856 262.409027,668.388184 
	C274.290527,664.860962 288.919189,673.522034 288.018341,688.546448 
	C287.805603,692.094604 287.803589,695.783203 284.479126,698.786133 
	C280.731110,702.171631 277.513885,706.135315 272.242676,708.466675 
	C277.739807,709.855591 284.981415,704.307190 288.562866,696.755798 
	C293.245789,686.882019 290.361023,675.624817 281.507202,669.222900 
	C272.143372,662.452026 260.818115,663.385071 251.933426,671.659241 
	C243.071060,679.912720 241.438736,690.693665 247.569183,700.484558 
	C252.941925,709.065430 262.515625,713.375977 270.259918,710.450928 
	C269.311218,710.450928 268.664490,710.450928 267.459808,710.471497 
M735.219360,748.918335 
	C732.297180,748.370605 729.775879,746.280457 725.813660,746.248901 
	C728.241333,749.114807 730.873718,750.501160 733.447266,750.487488 
	C743.327026,750.435059 752.827026,751.724792 761.380859,742.848511 
	C768.685242,735.268799 772.454346,727.394531 773.627319,717.590576 
	C773.894348,715.359009 774.194946,713.439392 776.927246,713.747559 
	C784.608215,714.613892 789.227966,708.392700 794.827454,705.223083 
	C800.671448,701.915039 802.949829,694.151733 805.345032,687.765991 
	C806.564758,684.514099 807.658813,683.722778 810.659546,683.617737 
	C815.597351,683.444824 817.643311,680.969421 817.874634,676.024353 
	C815.982239,677.765991 813.966797,680.032166 811.556213,681.741089 
	C808.133179,684.167664 806.995178,678.573914 803.713623,679.169678 
	C803.684021,688.039246 800.758850,695.775330 794.619934,702.242065 
	C788.302795,708.896423 780.487976,711.901123 771.394653,711.426147 
	C772.699463,734.948242 754.503235,752.775879 735.219360,748.918335 
M782.797241,284.122253 
	C788.389404,271.232483 779.036499,259.374939 771.140320,255.504471 
	C759.869934,249.980103 747.076294,254.615173 739.945312,266.419342 
	C735.614685,273.588013 736.307678,284.780792 741.548279,288.797974 
	C741.549316,287.333954 742.165894,285.679443 740.928223,284.922913 
	C738.192688,283.250946 738.867737,280.709412 738.621521,278.296692 
	C738.280823,274.959015 739.970032,272.491669 741.291443,269.613861 
	C744.511963,262.599762 752.379639,256.410248 759.525940,255.805435 
	C772.426392,254.713654 779.936096,265.543335 783.124939,274.404877 
	C783.629883,275.808136 783.764160,277.798218 781.949829,278.887299 
	C780.418274,279.806641 780.065979,281.326080 780.340576,282.796814 
	C781.041626,286.551910 778.146667,288.936218 776.238770,290.705048 
	C767.491760,298.814392 754.425415,299.227631 743.388489,292.068970 
	C746.869629,297.104004 751.062683,299.475128 756.545349,299.879578 
	C768.664978,300.773529 776.820190,294.978760 782.797241,284.122253 
M802.389648,402.804871 
	C815.265747,399.876129 828.141785,396.947357 841.530090,393.902100 
	C832.145264,390.950470 824.502930,397.851044 815.884583,396.550110 
	C815.600464,396.507202 815.240845,396.717651 814.966980,396.890198 
	C808.426025,401.010864 799.894104,398.455658 793.557983,403.268188 
	C793.450500,403.349915 793.232117,403.279266 793.066345,403.291718 
	C787.656311,403.698700 785.802979,406.357605 788.280762,411.151489 
	C789.632812,413.767395 788.588135,416.922882 791.361328,419.298096 
	C794.893311,422.323120 797.178955,418.362823 800.156555,418.639832 
	C802.729431,418.879181 805.623596,419.451904 808.001953,418.040497 
	C814.505493,414.180969 822.114258,415.145233 829.081909,413.010620 
	C836.483032,410.743256 843.704895,413.341888 849.434814,421.162354 
	C846.811279,412.913330 838.315918,408.740509 829.215027,410.473663 
	C819.444336,412.334503 809.734497,414.538116 800.044678,416.792419 
	C793.059204,418.417480 792.563782,418.138336 791.128113,411.183990 
	C790.288208,407.115479 791.258911,404.743927 795.757202,404.348907 
	C797.722351,404.176300 799.640320,403.466431 802.389648,402.804871 
M716.241760,227.193314 
	C718.530396,226.483444 720.795837,226.321457 722.580566,223.936356 
	C724.599792,221.237656 735.677612,222.902023 738.540771,225.169998 
	C740.668640,226.855499 743.160645,230.005112 745.953979,228.694794 
	C749.751404,226.913452 753.531372,223.934723 754.468689,219.588242 
	C755.478149,214.907120 751.238403,212.940735 748.042480,210.675049 
	C744.176208,207.934235 739.771790,206.850311 735.142822,206.962158 
	C735.561768,198.294510 731.658813,193.784592 725.120361,195.125671 
	C727.446350,197.230133 730.225708,198.849655 731.667480,201.266968 
	C733.640869,204.575562 729.076843,206.402252 728.313660,210.078537 
	C734.716431,207.583466 740.166809,209.547775 745.523743,211.947174 
	C754.153687,215.812592 754.203735,216.516464 748.446411,223.715485 
	C746.209106,226.513031 744.784180,226.986847 741.728210,224.568970 
	C734.376709,218.752487 726.151794,218.238647 719.053223,223.374924 
	C711.733765,228.671051 706.798767,236.187500 702.135559,243.834610 
	C703.892761,242.814774 705.484558,241.896179 706.996948,240.387772 
	C710.755859,236.638748 712.818298,231.926590 716.241760,227.193314 
M840.212341,503.954041 
	C829.397766,504.023254 818.583191,504.121246 807.768555,504.151794 
	C800.238708,504.173035 799.364685,502.830750 799.970520,495.340637 
	C800.358398,490.545532 804.325439,492.425751 806.881104,490.955872 
	C800.004333,483.898865 798.435608,475.232544 798.862549,466.049988 
	C799.471375,452.954956 807.419189,442.879669 819.691345,443.430511 
	C822.097046,443.538452 824.530457,443.026550 828.237671,442.680389 
	C818.551453,438.785797 811.623840,441.062195 804.888428,446.648041 
	C800.467896,450.314148 798.121643,455.142334 797.133850,460.055725 
	C795.861511,466.385040 794.142212,473.243256 798.579102,479.487518 
	C800.447021,482.116211 798.290100,486.135040 801.167053,488.640686 
	C798.908325,489.533020 799.806091,492.603607 797.562134,493.699310 
	C796.366821,494.282990 796.608154,497.073517 796.899536,497.009186 
	C799.545837,496.425079 799.118225,498.286499 798.902039,499.483429 
	C798.076721,504.052948 800.456604,504.788177 804.308655,504.749634 
	C819.282349,504.599701 834.258423,504.681915 849.233032,504.593536 
	C850.762512,504.584503 852.557861,505.335541 854.550842,502.928375 
	C849.567932,502.280090 845.367676,503.827118 840.212341,503.954041 
M675.374207,783.761902 
	C683.878296,783.374023 690.206299,779.175293 694.257690,771.975769 
	C697.354492,766.472595 698.101624,760.510132 694.563110,754.207886 
	C682.066162,761.084045 669.870422,767.562683 657.757324,775.464600 
	C662.657227,780.670349 667.697510,783.952820 675.374207,783.761902 
M185.620453,510.469452 
	C188.465897,510.042755 187.646027,507.753357 187.613083,506.135101 
	C187.386230,494.989899 187.090851,483.845215 186.688721,472.705017 
	C186.521423,468.070679 185.518082,467.573669 181.148102,469.451080 
	C172.607803,473.120117 167.475021,481.866547 168.146088,491.606873 
	C168.777588,500.772797 174.666641,507.367859 185.620453,510.469452 
M692.864746,715.835815 
	C691.442505,714.685974 691.166626,713.336243 692.478271,711.998352 
	C694.775085,709.655579 696.418579,706.649109 699.775330,704.733521 
	C708.116821,711.783203 716.486816,718.856995 725.600647,726.559448 
	C725.352478,722.346985 722.812561,720.952332 721.052307,719.378906 
	C715.985474,714.850464 710.255432,711.035339 705.393860,706.314087 
	C700.552612,701.612549 695.973267,702.731506 692.445312,706.741333 
	C689.441101,710.155823 689.794006,716.526001 693.102905,719.888489 
	C700.511536,727.417114 709.314941,733.342224 716.923340,740.676270 
	C718.501160,742.197266 720.380005,746.025757 724.958740,744.302856 
	C714.195190,734.746277 703.790771,725.508667 692.864746,715.835815 
M423.746033,168.182480 
	C431.307617,165.966721 438.869202,163.750977 446.442596,161.531754 
	C442.771851,150.557404 431.670532,145.862183 419.562836,149.555298 
	C410.066864,152.451797 403.794586,162.866089 406.127747,172.212296 
	C411.996216,172.203522 417.297852,169.435684 423.746033,168.182480 
M285.316833,722.737549 
	C289.417053,720.083435 292.327484,716.118835 296.711548,713.567810 
	C304.211884,709.203674 309.066986,701.379333 316.439850,696.721680 
	C318.939240,695.142700 318.766724,693.507446 318.414551,691.526489 
	C295.584808,711.137695 272.747711,730.755188 249.910629,750.372681 
	C253.731262,750.054504 256.629028,749.051086 258.998810,746.025574 
	C262.221985,741.910400 266.048004,737.860718 270.466492,735.191589 
	C275.988312,731.855774 280.375092,727.584351 285.316833,722.737549 
M432.032227,175.497238 
	C424.625061,178.700317 416.280945,179.026382 408.915710,182.429077 
	C411.878967,190.460388 419.726471,195.627457 428.577209,195.777893 
	C440.318207,195.977463 450.255951,189.671539 454.559631,178.419617 
	C442.130859,192.615387 429.323059,199.829941 413.204498,184.750290 
	C424.432617,180.730927 435.651917,176.903046 447.228821,173.769562 
	C442.092438,171.659500 437.632050,175.121658 432.032227,175.497238 
M243.991928,660.434265 
	C259.933472,647.756470 275.922882,647.732849 292.009979,660.859009 
	C287.556824,652.875061 279.982025,650.482178 272.439453,649.667175 
	C266.418396,649.016602 260.075287,648.040344 253.862732,651.899902 
	C250.484451,653.998596 246.777466,655.868835 243.261093,658.012146 
	C238.141541,661.132507 236.157928,666.296387 233.101212,670.859741 
	C231.475052,673.287415 229.239090,675.160461 229.312622,678.457092 
	C229.431320,683.778564 229.351349,689.104492 229.353989,694.428528 
	C229.354980,696.437622 229.502014,698.364502 232.647186,699.593933 
	C227.968842,683.984924 231.782013,671.260132 243.991928,660.434265 
M246.050201,719.511475 
	C249.587570,720.054688 251.828949,723.556519 255.880203,723.186035 
	C255.480957,724.339783 255.457336,725.202087 255.025330,725.535828 
	C249.653366,729.686462 245.241074,734.978149 239.075760,738.230713 
	C235.634201,740.046265 232.425949,743.014160 233.471146,747.497864 
	C234.509552,751.952515 237.923248,755.046387 241.703888,757.390259 
	C242.842636,758.096313 245.078629,758.319946 245.533585,755.432617 
	C241.085297,754.808533 239.417862,750.899780 236.837250,748.024353 
	C235.348831,746.366028 235.467758,744.824341 237.285309,743.346558 
	C240.631317,740.625854 243.924957,737.838257 247.181702,735.010925 
	C251.905075,730.910461 256.576324,726.749878 262.004395,721.967834 
	C248.424866,720.852661 240.595840,712.816833 233.854309,702.630859 
	C232.477737,706.650208 236.006058,708.304688 236.981125,710.763489 
	C238.327271,714.157959 242.436813,716.456604 246.050201,719.511475 
M184.717972,338.289368 
	C182.336594,351.573975 185.812866,362.970886 195.843185,372.317322 
	C187.128052,361.012268 183.985687,348.452545 188.642181,334.923523 
	C193.363190,321.207092 203.433624,313.109436 219.220139,310.764526 
	C200.312317,308.267273 188.301727,324.438965 184.717972,338.289368 
M802.878906,619.562805 
	C805.885559,620.512817 808.862793,621.571960 811.904358,622.392456 
	C821.079712,624.867615 827.931580,622.568848 831.459961,615.944336 
	C836.592957,606.307312 835.710999,597.023987 828.466248,590.918701 
	C822.152527,585.598083 814.007568,584.898499 806.377991,583.028015 
	C808.050842,584.608337 809.970276,585.491272 812.174805,585.600403 
	C818.334778,585.905273 822.793579,590.167542 827.990784,592.633850 
	C832.171326,594.617554 831.183228,599.331116 831.582336,603.164551 
	C832.234497,609.428528 830.343567,614.400024 825.570984,618.803406 
	C822.446106,621.686646 819.342224,619.848267 816.286438,620.261047 
	C813.405334,620.650208 810.247437,621.369080 807.516357,619.622498 
	C803.443787,617.018188 803.493713,616.940063 798.238220,618.214783 
	C799.713135,618.597595 800.961853,618.921692 802.878906,619.562805 
M842.010498,572.710144 
	C849.449646,566.902771 852.225159,555.950562 848.227844,548.176453 
	C844.777893,541.466980 837.194946,536.865601 832.003357,538.352234 
	C832.566467,539.871826 834.239685,539.593628 835.240845,540.364929 
	C838.699646,543.029907 843.459839,543.477661 845.928223,548.104248 
	C847.708435,551.440857 846.644470,554.563049 847.314148,557.692810 
	C848.750916,564.407593 844.508301,569.485962 839.961609,571.462158 
	C835.187561,573.537170 828.853027,573.573730 823.176208,570.904114 
	C817.999756,568.469910 812.631958,565.907715 805.432983,566.739929 
	C813.093567,570.489380 820.467651,571.327942 827.296814,573.880920 
	C832.002136,575.639954 836.775085,575.375427 842.010498,572.710144 
M766.246216,239.364761 
	C762.413635,239.351547 758.578552,239.249664 754.749207,239.354706 
	C751.963074,239.431152 749.170105,238.896942 746.406250,240.188965 
	C739.194336,243.560364 733.353882,248.423935 728.725830,254.916031 
	C726.244812,258.396271 726.028809,258.242279 727.112915,262.388062 
	C732.353821,251.839874 740.612610,244.717880 751.919983,241.557068 
	C763.259888,238.387131 773.515564,241.986404 783.167969,248.106659 
	C779.872437,242.755539 773.550537,239.501648 766.246216,239.364761 
M809.605957,467.252441 
	C808.542664,477.781006 812.639648,486.729858 819.299316,488.126282 
	C819.299316,487.638428 819.480591,486.901794 819.273071,486.767883 
	C812.634827,482.485260 810.986877,476.242981 811.619080,468.766327 
	C812.100220,463.076416 815.024597,459.643524 820.245544,459.704559 
	C825.173889,459.762177 828.243225,463.210724 828.292908,468.866608 
	C828.339661,474.184387 828.325256,479.503143 828.283203,484.821014 
	C828.268188,486.720917 828.581543,488.787048 825.523132,490.020325 
	C829.198975,490.259155 829.953979,488.614410 829.931274,486.384918 
	C829.868835,480.238525 830.008850,474.073395 829.565369,467.952148 
	C829.088501,461.369446 825.273560,456.948730 820.427673,456.479919 
	C815.672058,456.019897 811.615906,459.860352 809.605957,467.252441 
M698.327820,225.840530 
	C706.375488,215.738113 714.423157,205.635681 722.470825,195.533264 
	C721.912903,195.102203 721.354980,194.671127 720.797058,194.240051 
	C707.570312,210.818726 694.343567,227.397385 681.116760,243.976044 
	C681.488770,244.278091 681.860779,244.580139 682.232788,244.882187 
	C688.223999,239.395676 692.561157,232.466415 698.327820,225.840530 
M257.798859,328.885010 
	C256.924286,327.051605 255.825409,325.994629 253.110550,327.907898 
	C257.762360,329.598206 258.246521,333.223572 258.835663,336.855316 
	C259.931702,343.611816 258.662964,350.039825 256.466217,356.398529 
	C253.838577,364.004456 248.847504,370.010742 243.663361,376.043793 
	C247.002518,373.662018 250.366867,371.183075 252.668259,367.947968 
	C255.784943,363.566772 257.546814,358.493683 259.392395,353.308411 
	C262.456177,344.700439 263.400024,337.212585 257.798859,328.885010 
M397.756378,149.338150 
	C394.182495,152.609512 392.073883,156.347260 393.850220,161.610229 
	C401.217499,142.848450 415.733917,135.898361 435.204590,136.515228 
	C432.437653,133.657196 432.423431,133.710678 431.353821,133.426056 
	C423.863525,131.432846 418.031067,136.791412 411.383514,138.386108 
	C406.272186,139.612320 401.926483,144.407059 397.756378,149.338150 
M451.222260,171.725418 
	C452.716888,171.723755 454.214203,171.779892 455.705627,171.709717 
	C460.389557,171.489334 463.984039,167.277771 463.693390,162.573471 
	C463.519501,159.759720 460.221252,157.456024 460.265137,156.335449 
	C460.498413,150.375610 454.972015,148.274384 453.043610,143.899887 
	C451.651428,140.741745 442.236359,137.379669 438.591370,138.097244 
	C450.408417,142.604599 457.283600,151.157562 460.684753,162.871567 
	C461.649017,166.192505 460.795227,167.810715 457.471710,168.679169 
	C455.101471,169.298492 452.446533,169.555939 451.222260,171.725418 
M781.953796,695.837463 
	C792.597717,690.645996 796.458557,675.728943 790.010071,670.294495 
	C789.124634,671.326294 789.301819,672.452576 789.776123,673.556091 
	C792.936646,680.908936 786.967712,695.056335 776.683289,694.821411 
	C773.403625,694.746521 769.079041,696.369141 766.578857,691.404907 
	C765.788391,689.835510 763.124023,686.519592 759.396240,687.550537 
	C764.392334,695.544067 771.889038,698.454773 781.953796,695.837463 
M298.027161,234.274475 
	C290.926331,229.501373 283.482056,228.803101 275.893402,232.844238 
	C270.892029,235.507599 267.276886,239.468994 266.202759,246.042603 
	C275.449432,231.621185 286.920074,228.374207 301.445099,238.757019 
	C300.905640,236.025299 299.457184,235.624100 298.027161,234.274475 
M858.485474,394.080536 
	C858.854919,396.822998 861.024109,399.597778 859.648193,402.208313 
	C858.329102,404.710876 854.409363,403.372070 852.179199,405.621216 
	C854.403137,407.421661 856.409607,409.031830 858.907837,409.940094 
	C860.291992,408.081085 859.387024,405.921967 860.734009,404.172638 
	C862.931885,401.318298 861.386230,391.757172 858.768921,389.888458 
	C856.417664,388.209747 846.100281,389.672760 843.764404,392.100220 
	C846.639282,393.428772 849.209717,392.464203 851.903687,391.529175 
	C854.276733,390.705444 857.133240,389.214264 858.485474,394.080536 
M301.802429,268.243011 
	C300.466461,270.442841 297.200836,271.050751 296.430603,275.054199 
	C304.733490,271.970032 308.248535,265.963440 310.309509,258.863037 
	C312.193024,252.374039 308.985077,243.779343 303.354492,239.678192 
	C303.239563,242.038940 304.337158,243.824768 305.187378,245.784988 
	C306.956848,249.864639 311.686798,253.117172 307.513306,258.867249 
	C305.606262,261.494690 305.237274,265.450714 301.802429,268.243011 
M296.426117,667.275208 
	C300.055634,673.607605 302.502563,680.283752 301.837463,689.511536 
	C307.186890,681.128662 311.146118,684.920349 314.808624,689.620789 
	C316.008423,686.788513 315.280792,685.560852 313.663513,684.144592 
	C310.720551,681.567444 307.665009,680.591675 303.538757,682.707520 
	C305.098907,673.704956 299.064758,668.780762 295.269135,662.016052 
	C293.960999,664.533081 295.284119,665.540833 296.426117,667.275208 
M837.840027,351.242981 
	C837.466125,352.295380 837.092224,353.347809 836.468811,355.102325 
	C838.998962,353.907440 840.867493,353.025055 842.371155,352.314941 
	C840.710266,346.302826 842.556030,340.218903 840.526001,334.593048 
	C839.372314,331.395966 832.941040,320.897339 831.329895,320.324799 
	C833.681274,325.225647 836.802673,329.445282 837.742554,334.590088 
	C838.708557,339.877380 838.472473,345.182434 837.840027,351.242981 
M783.307739,568.968933 
	C783.412598,578.846130 784.009338,579.505676 792.041992,577.886353 
	C790.009155,576.998047 788.410461,576.274841 786.791504,575.600220 
	C785.641052,575.120850 784.913635,574.457886 784.795349,573.073853 
	C784.256226,566.764954 789.258240,562.450012 795.279907,563.925537 
	C797.769226,564.535583 800.209473,566.893005 803.664734,564.368896 
	C798.757935,562.683105 794.447510,561.136963 790.078796,559.778503 
	C789.490845,559.595703 788.270142,560.150574 787.921814,560.718933 
	C786.402588,563.197998 783.408875,564.780457 783.307739,568.968933 
M198.167328,345.380432 
	C198.576370,347.743713 197.566681,350.689178 201.273621,352.514496 
	C199.291199,341.871643 202.521500,333.665802 211.598953,326.991180 
	C204.147980,327.719849 198.714600,335.600311 198.167328,345.380432 
M823.950928,639.621033 
	C830.222717,638.352112 832.850037,636.824951 833.992859,633.338013 
	C826.465759,637.643982 818.416992,637.402832 810.401550,637.925659 
	C814.412231,640.672607 818.865173,639.175903 823.950928,639.621033 
M864.804871,493.151398 
	C862.944763,495.411621 861.084656,497.671844 858.727417,500.536133 
	C866.941467,496.953522 870.705566,491.563873 869.507935,482.581085 
	C868.804321,484.644653 868.378235,486.219116 867.733643,487.698303 
	C867.007202,489.365173 866.083984,490.946228 864.804871,493.151398 
M242.598785,316.216858 
	C241.030869,313.477844 233.411423,310.958801 229.728592,312.054565 
	C234.292175,314.304626 241.527206,313.789734 239.385391,322.580139 
	C243.186203,321.614441 242.507141,319.065460 242.598785,316.216858 
M864.856384,428.067780 
	C860.240967,427.883453 855.322205,432.323486 851.192200,426.578796 
	C850.002869,429.217926 850.847168,431.204224 852.718811,431.349945 
	C857.037415,431.686127 861.645935,432.738007 865.482788,429.471252 
	C866.052490,428.986145 867.037354,428.262756 864.856384,428.067780 
M278.598145,275.121796 
	C283.346863,277.424438 288.212036,277.409088 293.271484,275.642090 
	C285.280426,277.024536 278.703033,273.809448 272.403168,269.397766 
	C273.294281,272.432068 275.862091,273.325592 278.598145,275.121796 
M870.178833,477.458557 
	C870.406921,478.321350 870.068848,479.598267 871.996460,479.468048 
	C873.821411,473.097534 872.702087,467.162872 869.105347,461.905151 
	C869.432922,466.596008 869.785400,471.643280 870.178833,477.458557 
M246.662582,337.827362 
	C246.426743,337.184174 246.802155,336.155792 245.241287,336.060486 
	C246.130219,343.448578 245.168442,350.454712 241.238281,356.864716 
	C246.841125,351.874054 247.408142,345.394196 246.662582,337.827362 
M234.863754,330.386963 
	C233.356949,333.783752 231.204758,336.974518 231.178391,340.856201 
	C233.120377,335.551300 238.457382,331.707581 238.315201,325.170929 
	C235.927536,326.141357 236.155502,328.337280 234.863754,330.386963 
M327.530609,706.684143 
	C332.068207,707.609131 336.605804,708.534119 341.143372,709.459106 
	C341.270782,708.864441 341.398163,708.269775 341.525574,707.675171 
	C336.682343,704.812622 330.220947,708.376099 325.717499,703.792297 
	C325.349640,705.911987 326.121277,706.229980 327.530609,706.684143 
M840.356934,472.444061 
	C840.356934,476.340210 840.356934,480.236389 840.356934,484.132538 
	C841.759094,479.383118 841.873535,474.669647 840.630127,469.935425 
	C840.541870,470.536194 840.453552,471.136993 840.356934,472.444061 
M849.425171,486.209167 
	C848.871277,486.703796 847.867188,486.967041 848.456055,488.063110 
	C854.172546,486.667877 857.386292,482.304016 854.699768,478.634827 
	C854.777832,482.451080 852.176208,484.023010 849.425171,486.209167 
M837.502441,450.934296 
	C836.596069,446.989044 834.151001,445.035645 830.038940,445.218842 
	C832.992981,446.740112 833.307983,451.307556 837.502441,450.934296 
M349.179565,715.192810 
	C350.675751,716.232178 351.896637,717.774780 353.933838,717.857056 
	C351.022552,715.071289 348.455750,711.812744 343.867767,711.480652 
	C345.440582,712.603210 347.013397,713.725769 349.179565,715.192810 
M841.152832,464.281494 
	C842.048279,460.986115 841.181824,458.021088 839.389404,454.319580 
	C837.516479,458.785553 839.176575,461.774689 841.152832,464.281494 
M294.382202,289.418549 
	C293.638855,289.674988 292.895508,289.931427 292.152161,290.187897 
	C295.601929,290.077484 299.540100,291.929626 302.363617,287.916962 
	C299.318634,286.700958 297.349121,288.886383 294.382202,289.418549 
M807.675720,529.792542 
	C805.523438,527.991638 803.104126,526.948608 799.454590,527.005737 
	C801.732239,530.396790 804.340088,531.017090 807.675720,529.792542 
M697.067993,249.029572 
	C696.323792,250.707397 694.029541,251.842148 694.933899,254.571747 
	C699.204895,249.724228 699.204895,249.724228 698.892334,247.195190 
	C698.361877,247.701355 697.897827,248.144073 697.067993,249.029572 
M783.180359,629.629578 
	C783.567505,629.406006 783.954590,629.182495 784.341675,628.958862 
	C782.377197,626.489319 779.395752,626.448669 777.843079,629.073608 
	C779.355103,629.971619 781.001038,629.588379 783.180359,629.629578 
M827.714172,517.951660 
	C826.150330,517.144531 824.723694,517.131470 823.214417,518.566772 
	C825.098389,520.027039 826.828430,521.390442 828.873169,520.222107 
	C831.038330,518.984924 829.265381,518.603699 827.714172,517.951660 
z"/>
<path fill="#000000" opacity="1.000000" stroke="none" 
	d="
M155.706879,509.919739 
	C154.690353,508.446930 153.720276,507.178497 154.931580,505.738068 
	C155.647934,504.886200 156.823303,504.912781 157.611877,505.459625 
	C159.749847,506.942200 158.991760,509.064484 158.826477,511.008087 
	C157.468170,511.399567 156.734650,510.690125 155.706879,509.919739 
z"/>
<path fill="#000000" opacity="1.000000" stroke="none" 
	d="
M714.369873,561.346680 
	C715.811768,557.208496 717.835388,553.446777 722.391663,554.369202 
	C726.951843,555.292480 728.760132,559.243652 728.919495,563.808044 
	C729.012695,566.475281 728.872314,569.118835 728.077515,571.682312 
	C726.624695,576.368103 722.989868,577.316284 719.427185,573.837769 
	C716.054932,570.545349 714.922974,566.225464 714.369873,561.346680 
z"/>
<path fill="#000000" opacity="1.000000" stroke="none" 
	d="
M566.708618,196.192657 
	C565.475464,196.604874 563.872375,196.914871 564.177063,195.600922 
	C565.497437,189.907318 563.972534,185.674530 557.230103,183.157074 
	C561.992798,181.114380 565.181641,181.837387 567.159607,184.661575 
	C569.649597,188.216751 570.370972,192.284912 566.708618,196.192657 
z"/>
<path fill="#000000" opacity="1.000000" stroke="none" 
	d="
M507.299744,137.291931 
	C493.858185,140.298355 488.625000,146.561661 489.010468,159.734619 
	C489.302216,169.705353 490.250916,179.656448 490.880829,189.617966 
	C491.033569,192.033340 491.982605,195.173615 488.569885,195.811874 
	C485.380219,196.408417 481.705139,198.413956 479.409363,193.267914 
	C477.056549,187.993988 477.558472,182.518402 476.915253,177.152954 
	C476.284790,171.893707 476.512177,166.517151 476.581848,161.194946 
	C476.613678,158.762192 476.628143,156.161377 480.014130,155.374817 
	C481.443970,155.042679 483.658081,146.424835 482.983917,145.028152 
	C481.665833,142.297516 479.235352,142.932190 475.918793,147.228302 
	C473.285797,141.552567 473.711243,135.775665 474.052856,130.169189 
	C474.213074,127.540192 477.044556,127.977180 478.961700,128.414215 
	C483.004547,129.335815 485.237793,132.405975 487.168274,136.408966 
	C491.776031,130.285309 497.714081,126.879700 504.728424,125.366791 
	C507.091217,124.857162 509.762177,123.839928 510.995148,127.309120 
	C512.455078,131.416824 511.056396,135.712128 507.299744,137.291931 
z"/>
<path fill="#000000" opacity="1.000000" stroke="none" 
	d="
M651.818359,183.049133 
	C644.617981,181.754410 641.006958,178.270447 642.962952,173.797852 
	C644.083618,171.235352 645.104309,168.431320 646.624390,166.132721 
	C650.461121,160.331009 653.273865,154.024429 656.604553,147.821945 
	C660.879211,149.475677 665.592224,150.492859 669.373901,152.945847 
	C675.458679,156.892685 682.442017,159.862946 686.586121,166.381561 
	C688.511230,169.409805 687.055542,180.059204 684.080017,184.059647 
	C679.978027,189.574493 674.617249,193.571243 667.784119,190.994186 
	C662.435364,188.976929 656.614502,187.315933 651.818359,183.049133 
z"/>
<path fill="#000000" opacity="1.000000" stroke="none" 
	d="
M789.884460,358.906006 
	C790.767639,354.643250 787.064392,351.990906 786.370361,348.228760 
	C784.259460,336.787659 787.843567,327.425842 798.239258,323.397827 
	C802.532532,321.734344 808.335205,320.706177 813.099792,325.153595 
	C816.753784,328.564362 821.179260,331.035736 823.400024,335.907410 
	C827.632202,345.191498 823.341675,360.435211 814.119019,363.526947 
	C809.205444,365.174164 802.840027,366.530945 797.380066,362.104675 
	C795.689331,360.734070 793.030518,359.780640 790.427612,359.031006 
	C790.167358,359.136353 789.979492,358.981903 789.884460,358.906006 
z"/>
<path fill="#000000" opacity="1.000000" stroke="none" 
	d="
M686.135498,760.791504 
	C688.789062,760.334900 691.056213,759.940735 693.326660,759.546021 
	C695.727539,766.725769 693.631042,771.454102 686.768555,777.131714 
	C680.459473,782.351562 673.380554,780.212708 666.602173,779.893555 
	C663.843018,779.763672 663.438904,776.214844 665.537476,774.572449 
	C670.096558,771.004028 674.836792,767.372742 680.080994,765.101746 
	C682.589355,764.015503 683.432495,761.610107 686.135498,760.791504 
z"/>
<path fill="#000000" opacity="1.000000" stroke="none" 
	d="
M184.280365,479.192810 
	C184.280457,488.954285 184.280457,498.241211 184.280457,507.522766 
	C179.879349,507.650299 171.160278,500.675171 171.938934,498.108826 
	C173.217392,493.895111 168.370438,491.323059 169.955124,487.161530 
	C172.484482,480.519226 175.609604,474.635437 183.042511,472.379517 
	C184.980469,474.406250 183.996368,476.679901 184.280365,479.192810 
z"/>
<path fill="#000000" opacity="1.000000" stroke="none" 
	d="
M432.633362,162.644501 
	C424.983704,165.998840 417.126831,166.673721 409.406860,168.736115 
	C408.224426,164.563660 408.505646,161.693314 411.371735,158.431503 
	C414.832581,154.492905 419.340607,152.606171 423.558929,150.184082 
	C427.357178,148.003189 439.401184,152.923096 440.894012,156.976151 
	C441.974945,159.910919 439.584229,161.193710 437.459534,162.064178 
	C436.143158,162.603485 434.516266,162.384811 432.633362,162.644501 
z"/>
<path fill="#000000" opacity="1.000000" stroke="none" 
	d="
M319.132751,745.090332 
	C320.461487,750.827637 325.965515,751.803894 329.731049,754.433289 
	C332.737457,756.532654 335.422974,758.975647 338.344971,761.140198 
	C339.224396,761.791748 339.054962,763.707642 338.470032,763.686096 
	C335.061584,763.561035 333.330719,767.078064 330.299225,767.271301 
	C327.428650,767.454407 324.725769,767.589417 322.025208,765.181274 
	C319.989838,763.366394 316.287384,764.040771 313.978333,761.295837 
	C309.675354,756.180420 308.303558,750.608765 309.681335,744.195374 
	C310.232971,741.627808 311.693970,740.868103 313.211639,743.120361 
	C314.602173,745.183960 316.368927,744.468140 318.402527,744.735229 
	C318.756073,744.713501 319.005371,744.966553 319.132751,745.090332 
z"/>
</svg>